<svg width="119" height="114" viewBox="0 0 119 114" fill="none" xmlns="http://www.w3.org/2000/svg">
<path d="M0 10C0 4.47716 4.47715 0 10 0H109C114.523 0 119 4.47715 119 10V114H0V10Z" fill="#FDD7AD" fill-opacity="0.1"/>
<g clip-path="url(#clip0)">
<path d="M91 47.2759C91 56.4566 90.2386 67.171 87.4248 74.3214C86.9209 75.6725 86.2697 76.964 85.4828 78.1724H32.5172C31.7309 76.962 31.0761 75.671 30.5641 74.3214C27.7614 67.171 27 56.4566 27 47.2759C27 37.1683 28.8538 27.0607 30.0124 23.7393C30.1667 23.2981 30.5822 23.0019 31.0497 23H86.9503C87.4178 23.0019 87.8333 23.2981 87.9876 23.7393C89.1462 27.0607 91 37.1683 91 47.2759Z" fill="#FDD7AD"/>
<path d="M87.4247 74.3214C86.9208 75.6725 86.2695 76.964 85.4826 78.1724H32.5171C31.7307 76.962 31.076 75.671 30.564 74.3214C31.0352 69.6876 32.2072 65.1523 34.0398 60.8703C33.2291 58.2921 32.7399 55.6237 32.5833 52.9255C32.4856 51.2715 32.493 49.613 32.6053 47.96C31.7989 45.9929 31.3937 43.8845 31.4136 41.7586C31.5122 37.5629 32.458 33.4305 34.1943 29.6097V28.4069C33.8419 26.6254 33.6499 24.8158 33.6205 23H84.3791C84.3494 24.959 84.1276 26.9104 83.7171 28.8262C85.6571 32.4636 86.6441 36.5332 86.586 40.6552C86.6076 42.7976 86.1947 44.9223 85.3722 46.9007C85.5703 48.9028 85.6072 50.9175 85.4826 52.9255C85.3225 55.6548 84.8221 58.3534 83.9929 60.9586C85.804 65.2144 86.961 69.7196 87.4247 74.3214Z" fill="#F9C795"/>
<path d="M85.4829 79.2767C85.4823 81.6066 85.1894 83.9272 84.6112 86.1842C84.4871 86.6672 84.0504 87.0038 83.5518 87.0008H34.4484C33.9498 87.0038 33.5131 86.6672 33.3891 86.1842C32.8108 83.9272 32.5179 81.6066 32.5174 79.2767C32.5135 75.5566 32.9694 71.8504 33.8746 68.2422C38.8714 75.5949 46.8498 80.3771 55.6898 81.318L70.0346 79.4753C75.7424 77.2125 80.6477 73.3021 84.1256 68.2422C85.0309 71.8504 85.4867 75.5566 85.4829 79.2767Z" fill="#35495E"/>
<path d="M82.1725 23C82.1418 25.0809 81.8677 27.1511 81.3559 29.1683L36.4014 30.1172V28.1752C36.0477 26.472 35.8556 24.7393 35.8276 23H82.1725Z" fill="#2FA8CC"/>
<path d="M57.8965 81.4824H60.1034V86.9997H57.8965V81.4824Z" fill="#2C3E50"/>
<path d="M84.3794 40.6552C84.4065 42.5517 84.0304 44.4323 83.2759 46.1724C83.1877 45.9959 83.0883 45.8303 82.989 45.6648V45.6538C82.989 45.6477 82.9841 45.6428 82.978 45.6428C81.7532 43.8 79.2373 42.9503 71.138 43.9655C62.3104 45.069 60.1035 41.7586 50.1725 41.7586C44.6014 41.6436 39.1768 43.5485 34.9008 47.1214C34.7794 47.2207 34.7242 47.2759 34.7242 47.2759C33.9697 45.5357 33.5936 43.6551 33.6208 41.7586C33.6208 36.6276 36.2801 23.5186 45.7587 23.0552L74.4483 23C83.2759 27.4138 84.3794 36.1641 84.3794 40.6552Z" fill="#67B9CC"/>
<path d="M84.1253 68.2411C80.6473 73.301 75.7421 77.2114 70.0343 79.4742L55.6894 81.3169C46.8495 80.376 38.8711 75.5938 33.8743 68.2411C34.4878 65.7765 35.3225 63.3722 36.3681 61.0576H36.4343C40.4729 72.2245 50.8784 75.9652 59.0329 75.9652C67.1874 75.9652 77.6039 72.2245 81.6315 61.0576C82.6771 63.3722 83.5118 65.7765 84.1253 68.2411Z" fill="#F0C419"/>
<path d="M62.3104 75.9648C65.8414 76.009 70.0345 76.3511 70.0345 78.1717V82.5855C70.0345 82.5855 66.1172 81.9345 62.2993 81.6366L62.3104 75.9648Z" fill="#F29C1F"/>
<path d="M62.2883 75.7559C62.3017 75.825 62.3091 75.8951 62.3104 75.9655V81.4827C62.3104 82.0922 61.8164 82.5862 61.2069 82.5862H56.7931C56.1837 82.5862 55.6897 82.0922 55.6897 81.4827V75.9655C55.691 75.8951 55.6984 75.825 55.7118 75.7559H62.2883Z" fill="#F3D55B"/>
<path d="M83.2759 52.7933C82.1724 70.4485 68.9531 75.9657 59.0331 75.9657C49.1131 75.9657 35.8938 70.4485 34.7904 52.7933C34.6703 50.9029 34.7072 49.0059 34.9007 47.1216C39.1768 43.5487 44.6013 41.6438 50.1724 41.7588C60.1035 41.7588 62.3104 45.0692 71.1379 43.9657C79.2373 42.9505 81.7531 43.8002 82.9779 45.643C82.984 45.643 82.989 45.6479 82.989 45.654V45.665C83.3346 48.0245 83.4308 50.4137 83.2759 52.7933Z" fill="#FDD7AD"/>
<path d="M58.9999 71.5517C55.6932 71.6363 52.4272 70.8087 49.5599 69.1595C49.0529 68.8212 48.916 68.136 49.2542 67.629C49.5925 67.1219 50.2777 66.9851 50.7847 67.3233C53.2946 68.7158 56.1305 69.4136 58.9999 69.3448C61.8704 69.4238 64.709 68.7253 67.2151 67.3233C67.5431 67.1045 67.9629 67.0773 68.3164 67.252C68.6698 67.4267 68.9033 67.7766 68.9288 68.1701C68.9543 68.5635 68.7679 68.9407 68.4399 69.1595C65.5726 70.8087 62.3066 71.6363 58.9999 71.5517Z" fill="#F9C795"/>
<path d="M59.0001 58.3103C60.219 58.3103 61.207 57.3222 61.207 56.1034C61.207 54.8845 60.219 53.8965 59.0001 53.8965C57.7813 53.8965 56.7932 54.8845 56.7932 56.1034C56.7932 57.3222 57.7813 58.3103 59.0001 58.3103Z" fill="#F9C795"/>
<path d="M84.3353 41.7593C84.2471 43.2818 83.8884 44.7764 83.276 46.1731C83.1878 45.9966 83.0884 45.831 82.9891 45.6655V45.6545C82.9891 45.6484 82.9842 45.6435 82.9781 45.6435C81.7533 43.8007 79.2374 42.951 71.1381 43.9662C62.3105 45.0697 60.1036 41.7593 50.1726 41.7593C44.6015 41.6443 39.1769 43.5492 34.9009 47.1221C34.7795 47.2214 34.7243 47.2766 34.7243 47.2766C34.1393 45.9485 33.7848 44.5305 33.676 43.0835C36.3353 41.2297 42.8567 37.5 50.1726 37.5C60.1036 37.5 62.3105 40.8103 71.1381 39.7069C77.6595 38.8903 82.1836 40.2255 84.3353 41.7593Z" fill="#3B97D3"/>
</g>
<defs>
<clipPath id="clip0">
<rect x="27" y="23" width="64" height="64" rx="32" fill="white"/>
</clipPath>
</defs>
</svg>
