<svg width="119" height="114" viewBox="0 0 119 114" fill="none" xmlns="http://www.w3.org/2000/svg">
<path d="M0 10C0 4.47716 4.47715 0 10 0H109C114.523 0 119 4.47715 119 10V114H0V10Z" fill="#FFA726" fill-opacity="0.1"/>
<path d="M60 87C77.6731 87 92 72.6731 92 55C92 37.3269 77.6731 23 60 23C42.3269 23 28 37.3269 28 55C28 72.6731 42.3269 87 60 87Z" fill="#FFA726"/>
<path d="M48.2115 37.5156H45.3365C45.4108 39.7093 45.2091 41.9035 44.7363 44.0469C44.1078 47.1332 44.8574 49.3419 46.0243 50.8934L48.0422 48.7324C47.4805 47.737 47.1912 46.4001 47.5538 44.6205C48.0668 42.2886 48.2877 39.902 48.2115 37.5156Z" fill="#CE344E"/>
<path d="M73.9745 50.8934C75.1414 49.3419 75.8911 47.1332 75.2625 44.0469C74.7897 41.9035 74.5881 39.7093 74.6624 37.5156H71.7874C71.7111 39.902 71.932 42.2886 72.4451 44.6205C72.8077 46.4001 72.5169 47.737 71.9567 48.7324L73.9745 50.8934Z" fill="#CE344E"/>
<path d="M56.3848 73.9059C56.6327 75.4193 56.754 76.9508 56.7474 78.4843H63.2521C63.2456 76.9508 63.3668 75.4193 63.6147 73.9059C63.7682 72.977 64.1229 72.093 64.6542 71.3157C65.1854 70.5385 65.8802 69.8868 66.6899 69.4065C70.8946 66.9268 75.523 62.7221 75.523 56.2236C75.5248 47.8401 66.6015 45.2393 59.9998 45.2393C53.398 45.2393 44.4766 47.8401 44.4766 56.2236C44.4766 62.7218 49.1067 66.9275 53.3096 69.4065C54.1193 69.8868 54.8141 70.5385 55.3454 71.3157C55.8766 72.093 56.2314 72.977 56.3848 73.9059Z" fill="#EC5569"/>
<path d="M58.4207 72.5956C58.6644 74.549 58.7844 76.5158 58.78 78.4843H61.218C61.2135 76.5158 61.3335 74.549 61.5774 72.5956C61.7358 71.3595 62.1701 70.1749 62.8481 69.1293C63.5262 68.0838 64.4307 67.204 65.4946 66.5552C68.9212 64.4554 72.4665 61.1035 72.4665 56.2236C72.4701 48.5164 61.2759 48.2939 59.9998 48.2939C58.7236 48.2939 47.5312 48.5164 47.5312 56.2236C47.5312 61.1035 51.0772 64.4554 54.5031 66.5552C55.5671 67.204 56.4717 68.0837 57.1498 69.1293C57.8279 70.1748 58.2622 71.3595 58.4207 72.5956Z" fill="#FBF2F4"/>
<path d="M58.4223 72.5951C58.6652 74.5491 58.7852 76.5163 58.7817 78.4853H61.2183C61.2148 76.5163 61.3348 74.5491 61.5777 72.5951C61.7369 71.3597 62.1715 70.1758 62.8495 69.1308C63.5275 68.0858 64.4315 67.2064 65.4948 66.5576C68.4884 64.7212 71.5755 61.9325 72.3086 58.0081L72.305 58.0009C70.5547 57.1678 68.6093 56.8309 66.6808 57.027C64.0286 57.3073 62.9828 58.9137 60 58.9137C57.0172 58.9137 55.9714 57.3073 53.3192 57.027C51.3907 56.8309 49.4453 57.1678 47.695 58.0009L47.6914 58.0081C48.4245 61.9325 51.5116 64.7212 54.5052 66.5576C55.5685 67.2064 56.4725 68.0858 57.1505 69.1308C57.8285 70.1758 58.2631 71.3597 58.4223 72.5951Z" fill="#FDD843"/>
<path d="M60.7277 64.1725C60.7278 64.0284 60.6852 63.8875 60.6052 63.7676C60.5253 63.6477 60.4116 63.5543 60.2785 63.499C60.1454 63.4438 59.9989 63.4292 59.8575 63.4573C59.7162 63.4853 59.5863 63.5546 59.4844 63.6565C59.3824 63.7583 59.313 63.8881 59.2848 64.0294C59.2566 64.1708 59.271 64.3173 59.3261 64.4504C59.3812 64.5836 59.4746 64.6974 59.5944 64.7775C59.7142 64.8575 59.8551 64.9003 59.9992 64.9003C60.1922 64.9002 60.3774 64.8235 60.5139 64.6871C60.6505 64.5506 60.7274 64.3656 60.7277 64.1725Z" fill="#FABE2C"/>
<path d="M54.8791 62.3231C55.2814 62.3231 55.6075 61.997 55.6075 61.5947C55.6075 61.1924 55.2814 60.8662 54.8791 60.8662C54.4768 60.8662 54.1506 61.1924 54.1506 61.5947C54.1506 61.997 54.4768 62.3231 54.8791 62.3231Z" fill="#FABE2C"/>
<path d="M65.1201 62.3231C65.5224 62.3231 65.8485 61.997 65.8485 61.5947C65.8485 61.1924 65.5224 60.8662 65.1201 60.8662C64.7177 60.8662 64.3916 61.1924 64.3916 61.5947C64.3916 61.997 64.7177 62.3231 65.1201 62.3231Z" fill="#FABE2C"/>
<path d="M63.6498 58.6844L60.1357 53L58.1785 60.8644L60.1357 65C62.4197 65 64.2713 63.1484 64.2713 60.8644C64.2713 60.0642 64.0434 59.3174 63.6498 58.6844Z" fill="#FF2366"/>
<path d="M56.6215 58.6844C56.2279 59.3174 56 60.0642 56 60.8644C56 63.1484 57.8516 65 60.1356 65V53L56.6215 58.6844Z" fill="#E50E70"/>
</svg>
