<svg width="119" height="114" viewBox="0 0 119 114" fill="none" xmlns="http://www.w3.org/2000/svg">
<path d="M0 10C0 4.47716 4.47715 0 10 0H109C114.523 0 119 4.47715 119 10V114H0V10Z" fill="#21D0C3" fill-opacity="0.1"/>
<path d="M61 90C78.6731 90 93 75.6731 93 58C93 40.3269 78.6731 26 61 26C43.3269 26 29 40.3269 29 58C29 75.6731 43.3269 90 61 90Z" fill="#21D0C3"/>
<g clip-path="url(#clip0)">
<path d="M79.0062 87.8948L80.0609 84.6635V80.658C80.0609 72.7293 74.2613 66.1106 66.5394 64.5479C64.9405 65.3687 63.1167 65.8344 61.1801 65.8344C59.2435 65.8344 57.4197 65.3687 55.8208 64.5479C48.0989 66.1105 42.2993 72.7293 42.2993 80.658V84.6635L43.354 87.8948L61.5899 88.9143L79.0062 87.8948Z" fill="#B3E59F"/>
<path d="M46.2841 50.88C46.2841 50.88 42.997 46.5991 42.8561 40.4072C42.8482 40.0608 43.1658 39.7912 43.5209 39.8384C44.2552 39.936 45.4813 40.0193 46.6113 39.7248C50.0642 38.8248 53.4616 32.2028 59.4472 32.0099C65.4329 31.8169 66.5936 34.5172 66.5936 34.5172C66.5936 34.5172 68.7956 33.2519 72.0836 33.6814C77.0051 34.3243 81.3282 41.5723 76.9345 51.529L46.2841 50.88Z" fill="#565E75"/>
<path d="M44.6289 52.8348C44.6289 54.9818 46.4342 56.2468 48.0227 56.2468L49.7377 54.801C49.7377 54.7918 51.2337 52.8441 51.2337 52.8348L49.737 50.8668C49.2283 50.5964 48.6441 50.4424 48.0225 50.4424C46.4342 50.4423 45.0891 51.4471 44.6289 52.8348Z" fill="#EBBAA1"/>
<path d="M48.0224 55.2275C46.4341 55.2275 45.089 54.2227 44.6288 52.835C44.5187 53.1668 44.4587 53.5202 44.4587 53.8873C44.4587 55.7899 46.0542 57.3322 48.0224 57.3322C48.7238 57.3322 49.3772 57.1356 49.9286 56.7974L50.8629 55.5932L49.7376 54.8012C49.2285 55.0722 48.6444 55.2275 48.0224 55.2275Z" fill="#E8A990"/>
<path d="M77.7313 52.8348C77.7313 54.9818 75.926 56.2468 74.3375 56.2468L72.6225 54.801C72.6225 54.7918 71.1265 52.8441 71.1265 52.8348L72.6232 50.8668C73.1319 50.5964 73.7161 50.4424 74.3376 50.4424C75.926 50.4423 77.2711 51.4471 77.7313 52.8348Z" fill="#EBBAA1"/>
<path d="M74.3375 55.2275C75.9258 55.2275 77.271 54.2227 77.7312 52.835C77.8412 53.1668 77.9012 53.5202 77.9012 53.8873C77.9012 55.7899 76.3057 57.3322 74.3376 57.3322C73.6362 57.3322 72.9828 57.1356 72.4314 56.7974L71.4971 55.5932L72.6224 54.8012C73.1312 55.0722 73.7153 55.2275 74.3375 55.2275Z" fill="#E8A990"/>
<path d="M61.18 64.7501C67.4998 64.7501 72.6231 60.458 72.6231 52.669V49.493C72.6231 48.5247 72.2153 47.5931 71.4791 46.9365C69.3424 45.0311 66.9639 41.7348 66.0084 40.3582C65.7891 40.0421 65.3236 40.0127 65.0577 40.2934C60.2378 45.3821 53.9944 47.0779 51.2007 47.6054C50.3496 47.7662 49.7371 48.488 49.7371 49.3263V52.669C49.7368 60.0192 54.8601 64.7501 61.18 64.7501Z" fill="#FDD4BB"/>
<path d="M55.7849 64.5303C55.774 64.6663 55.7666 64.8033 55.7666 64.9419C55.7666 67.8321 58.1903 70.175 61.1801 70.175C64.1699 70.175 66.5936 67.8321 66.5936 64.9419C66.5936 64.8033 66.5863 64.6662 66.5753 64.5303H55.7849Z" fill="#EBBAA1"/>
<path d="M80.0606 87.8943L75.7228 88.9139L71.385 87.8943V84.6631H80.0606V87.8943Z" fill="#FDD4BB"/>
<path d="M72.2923 90.0004H79.4748C79.7984 90.0004 80.0607 89.7467 80.0607 89.434V87.8955H72.2923L71.385 88.9479L72.2923 90.0004Z" fill="#F7C4A8"/>
<path d="M70.4779 87.8955H58.3246L54.8096 88.915L55.4226 90.0004H70.4779L71.3852 88.948L70.4779 87.8955Z" fill="#95D6A4"/>
<path d="M72.2923 87.8955V79.6495C72.2923 79.1651 71.8861 78.7725 71.385 78.7725C70.884 78.7725 70.4778 79.1651 70.4778 79.6495V87.8955L71.385 88.9478L72.2923 87.8955Z" fill="#95D6A4"/>
<path d="M70.4778 87.8955H72.2923V90.0004H70.4778V87.8955Z" fill="#78C2A4"/>
<path d="M61.1802 63.7295C54.8604 63.7295 49.7371 58.7771 49.7371 52.668V54.7728C49.7371 60.882 54.8603 65.8344 61.1801 65.8344C67.4999 65.8344 72.6231 60.882 72.6231 54.7728V52.668C72.6232 58.777 67.5 63.7295 61.1802 63.7295Z" fill="#F7C4A8"/>
<path d="M46.3391 87.8943L50.7388 86.2787L50.9197 84.6631H42.2993V87.8943L43.8484 88.734L46.3391 87.8943Z" fill="#EBBAA1"/>
<path d="M42.2993 87.8955V90.0004H43.3553L47.0032 88.915L46.3391 87.8955H42.2993Z" fill="#E8A990"/>
<path d="M46.3389 87.8949L52.5957 88.9145L58.3243 87.8949L60.9995 85.9547C70.6318 85.9547 70.0575 75.9381 64.6003 74.979C60.5155 74.261 58.2538 77.8833 58.2538 77.8833C58.2538 77.8833 56.0885 75.571 54.5404 77.0674C52.9922 78.5639 55.2764 81.5902 55.2764 81.5902L46.3389 87.8949Z" fill="#FDD4BB"/>
<path d="M46.3388 87.8955L43.355 90.0004H55.4222L58.3243 87.8955H46.3388Z" fill="#F7C4A8"/>
<path d="M61.1799 56.4463C59.3779 56.4463 57.877 57.692 57.5484 59.3412C57.4782 59.6932 57.7523 60.0213 58.1231 60.0213H64.2367C64.6075 60.0213 64.8815 59.6932 64.8114 59.3412C64.4828 57.692 62.9818 56.4463 61.1799 56.4463Z" fill="#F4594E"/>
<path d="M54.0283 53.7859C54.1954 54.0729 54.5041 54.2342 54.822 54.2341C54.9732 54.2341 55.1263 54.1976 55.2674 54.121L57.6125 52.8451C57.904 52.6865 58.0819 52.3859 58.076 52.0626C58.0697 51.7392 57.8807 51.4452 57.5833 51.297L55.2383 50.1273C54.792 49.9047 54.2431 50.074 54.0126 50.5057C53.7822 50.9373 53.9574 51.4678 54.404 51.6906L55.2493 52.1122L54.3748 52.588C53.9371 52.8263 53.7819 53.3625 54.0283 53.7859Z" fill="#565E75"/>
<path d="M64.748 52.8453L67.0931 54.1211C67.2342 54.1978 67.3873 54.2343 67.5385 54.2343C67.8564 54.2343 68.1652 54.073 68.3322 53.7861C68.5787 53.3628 68.4234 52.8264 67.9856 52.5881L67.1111 52.1123L67.9564 51.6907C68.403 51.468 68.5783 50.9375 68.3478 50.5058C68.1173 50.0739 67.5685 49.9047 67.122 50.1274L64.777 51.297C64.4796 51.4453 64.2905 51.7393 64.2843 52.0627C64.2785 52.3861 64.4565 52.6867 64.748 52.8453Z" fill="#565E75"/>
<path d="M70.7473 76.064C70.8941 76.1492 71.0555 76.1898 71.2151 76.1898C71.524 76.1898 71.8252 76.0376 71.9958 75.7631L73.4249 73.4642C73.5938 73.1924 73.5984 72.8538 73.4369 72.578C73.2755 72.3022 72.9729 72.1316 72.645 72.1316H71.7702L72.5057 70.9449C72.764 70.5283 72.6239 69.988 72.1928 69.7385C71.762 69.4888 71.2029 69.6242 70.9446 70.041L69.3838 72.5591C69.2153 72.8308 69.2111 73.169 69.3727 73.4447C69.5343 73.7203 69.8366 73.8907 70.1643 73.8907H71.0366L70.4358 74.8571C70.1772 75.2734 70.3166 75.8138 70.7473 76.064Z" fill="#FFDE91"/>
<path d="M51.4828 75.2799C51.6296 75.3651 51.791 75.4056 51.9506 75.4056C52.2594 75.4056 52.5605 75.2536 52.7313 74.979L54.1604 72.68C54.3294 72.4082 54.3338 72.0696 54.1723 71.7938C54.0109 71.5179 53.7084 71.3473 53.3805 71.3473H52.5058L53.2412 70.1608C53.4995 69.7442 53.3594 69.2039 52.9283 68.9543C52.4975 68.7047 51.9384 68.84 51.6801 69.2567L50.1194 71.7747C49.9509 72.0464 49.9467 72.3848 50.1083 72.6604C50.2699 72.9361 50.5722 73.1064 50.8999 73.1064H51.7722L51.1714 74.0728C50.9127 74.4893 51.0521 75.0296 51.4828 75.2799Z" fill="#FFDE91"/>
</g>
<defs>
<clipPath id="clip0">
<rect x="31" y="32" width="60" height="58" rx="29" fill="white"/>
</clipPath>
</defs>
</svg>
