<svg width="119" height="114" viewBox="0 0 119 114" fill="none" xmlns="http://www.w3.org/2000/svg">
<path d="M0 10C0 4.47716 4.47715 0 10 0H109C114.523 0 119 4.47715 119 10V114H0V10Z" fill="#303C5A" fill-opacity="0.1"/>
<g clip-path="url(#clip0)">
<path d="M85.3475 74.165C79.5737 82.5238 69.9263 88 59 88C41.3275 88 27 73.6725 27 56C27 50.2225 28.5312 44.8037 31.21 40.125C36.725 30.4913 47.105 24 59 24C62.9987 24 66.8275 24.7338 70.3563 26.075L72.8288 30.0675C81.0312 43.3125 85.3675 58.5863 85.3475 74.165Z" fill="#464F6E"/>
<path d="M85.3475 74.165C79.5737 82.5238 69.9263 88 59 88C41.3275 88 27 73.6725 27 56C27 50.2225 28.5312 44.8038 31.21 40.125C36.725 49.7587 47.105 56.25 59 56.25C67.525 56.25 75.2712 52.9163 81.0062 47.48C83.88 56.04 85.3587 65.05 85.3475 74.165Z" fill="#303C5A"/>
<path d="M91.0001 56.0002C91.0001 62.7464 88.9114 69.0052 85.3476 74.1652C84.8826 74.0952 84.4114 74.0677 83.9364 74.0915C81.2576 74.2215 78.7889 75.9015 76.1101 75.7865C74.0426 75.6977 72.0651 74.444 71.1026 72.6127C70.3639 71.2052 70.2514 69.5127 70.7239 68.0027C71.0239 67.0464 71.6514 65.6064 71.2664 64.5852C70.8564 63.4977 67.5289 61.8664 66.9851 61.1202C66.4426 60.3727 67.0539 59.1489 67.6651 57.7227C68.2776 56.2964 71.3351 56.1602 71.3351 56.1602C71.3351 56.1602 68.0739 55.4814 66.9851 54.4614C65.8989 53.4427 65.6264 51.7427 66.6451 51.1327C67.0851 50.8689 67.7001 50.0889 68.2589 49.2864C68.9864 48.2402 68.6526 46.7977 67.5489 46.1614C67.0826 45.8939 66.6151 45.5764 66.2389 45.2202C64.5939 43.6652 65.6439 41.3589 67.1114 40.1264C68.3439 39.0927 69.8814 38.3489 70.7526 36.9964C72.3751 34.4777 71.0214 31.2152 70.5389 28.2602C70.4201 27.5327 70.3601 26.8014 70.3564 26.0752C77.3251 28.7202 83.1289 33.7302 86.7901 40.1252C89.4689 44.8039 91.0001 50.2227 91.0001 56.0002Z" fill="#FFC0A4"/>
<path d="M68.5364 45.2926C69.0033 44.5845 72.3133 45.5877 71.9002 46.827C71.487 48.0662 68.0694 46.0007 68.5364 45.2926Z" fill="#FFA87A"/>
<path d="M71.3346 56.1598C71.3346 56.1598 68.0732 55.4812 66.9852 54.4612C65.8986 53.4426 65.6266 51.7426 66.6452 51.1318C66.6454 51.1318 69.9906 52.4758 71.3346 56.1598Z" fill="#FFA87A"/>
<path d="M71.3345 56.1602C70.7319 59.0468 69.9451 60.4375 66.9851 61.1202C66.4425 60.3722 67.0531 59.1495 67.6651 57.7228C68.2773 56.2962 71.3345 56.1602 71.3345 56.1602Z" fill="#FFA87A"/>
<path d="M62.5934 53.1094L61.7406 52.2594L59.5278 52.5798L57.9437 51.0014L55.7303 51.3217L54.3896 49.986C54.1206 49.718 54.1197 49.2828 54.3877 49.0138C54.6557 48.7448 55.0909 48.744 55.3599 49.0119L56.2137 49.8625L58.4271 49.5423L60.0112 51.1204L62.2242 50.8L63.5641 52.1354C63.8329 52.4034 63.8337 52.8388 63.5657 53.1077C63.2977 53.3767 62.8624 53.3774 62.5934 53.1094Z" fill="white"/>
<path d="M56.528 63.0875L54.6548 62.8165C54.2791 62.7621 54.0185 62.4135 54.0728 62.0377C54.1272 61.662 54.4758 61.4014 54.8517 61.4557L56.0446 61.6282L57.629 60.0499L59.8421 60.3702L61.4261 58.792L63.2984 59.0632C63.6741 59.1177 63.9346 59.4665 63.8801 59.8422C63.8256 60.218 63.4769 60.4785 63.1011 60.424L61.9094 60.2512L60.3254 61.8295L58.1122 61.5091L56.528 63.0875Z" fill="white"/>
<path d="M56.9477 57.3759L54.5351 56.3759L52.1221 57.3759L50.0809 56.5301C49.7302 56.3847 49.5637 55.9826 49.7091 55.6318C49.8544 55.2811 50.2566 55.1146 50.6074 55.2599L52.1221 55.8877L54.5351 54.8877L56.9477 55.8877L59.3602 54.8877L61.4008 55.7336C61.7516 55.8789 61.9181 56.2812 61.7727 56.6319C61.6273 56.9827 61.2251 57.1491 60.8743 57.0037L59.3602 56.3761L56.9477 57.3759Z" fill="white"/>
<path d="M55.0311 72.4654C55.0311 73.0069 54.5928 73.4424 54.0541 73.4424H49.6659L52.7701 76.5465C53.1497 76.9261 53.1497 77.5459 52.7701 77.9283C52.5774 78.1181 52.3289 78.213 52.0778 78.213C51.8293 78.213 51.5782 78.1181 51.3883 77.9283L48.2842 74.8241V79.2123C48.2842 79.7315 47.8767 80.1586 47.3629 80.1865C47.3434 80.1893 47.3267 80.1893 47.3071 80.1893C46.7683 80.1893 46.3301 79.751 46.3301 79.2123V74.8241L43.2287 77.9283C43.0361 78.1181 42.7877 78.213 42.5364 78.213C42.2879 78.213 42.0368 78.1181 41.8469 77.9283C41.4646 77.5459 41.4646 76.9261 41.8469 76.5465L44.9483 73.4424H40.5629C40.0213 73.4424 39.5859 73.0069 39.5859 72.4654C39.5859 71.9266 40.0214 71.4884 40.5629 71.4884H44.9483L41.8469 68.387C41.4646 68.0046 41.4646 67.3878 41.8469 67.0053C42.2294 66.6229 42.8463 66.6229 43.2287 67.0053L46.3301 70.1066V65.7211C46.3301 65.1796 46.7683 64.7441 47.3071 64.7441C47.3266 64.7441 47.3433 64.7441 47.3629 64.7469C47.8766 64.7748 48.2842 65.1991 48.2842 65.7211V70.1065L51.3883 67.0051C51.7679 66.6228 52.3877 66.6228 52.7701 67.0051C53.1497 67.3876 53.1497 68.0045 52.7701 68.3869L49.6659 71.4883H54.0541C54.5928 71.4884 55.0311 71.9266 55.0311 72.4654Z" fill="#81F700"/>
<path d="M55.0312 72.4654C55.0312 73.0069 54.5929 73.4424 54.0542 73.4424H49.666L52.7702 76.5466C53.1498 76.9262 53.1498 77.5459 52.7702 77.9283C52.5775 78.1182 52.329 78.2131 52.0779 78.2131C51.8294 78.2131 51.5783 78.1182 51.3884 77.9283L48.2843 74.8242V79.2123C48.2843 79.7316 47.8768 80.1587 47.363 80.1866V64.7471C47.8767 64.7749 48.2843 65.1993 48.2843 65.7213V70.1067L51.3884 67.0053C51.768 66.6229 52.3878 66.6229 52.7702 67.0053C53.1498 67.3878 53.1498 68.0047 52.7702 68.3871L49.666 71.4884H54.0542C54.5929 71.4884 55.0312 71.9267 55.0312 72.4654Z" fill="#00CC7F"/>
<path d="M52.061 72.4656C52.061 75.0505 49.9646 77.1469 47.3797 77.1469H47.363C44.7865 77.1385 42.6985 75.0449 42.6985 72.4656C42.6985 69.8864 44.7865 67.7955 47.363 67.7871H47.3797C49.9646 67.7871 52.061 69.8806 52.061 72.4656Z" fill="#00CC7F"/>
<path d="M52.061 72.4656C52.061 75.0505 49.9647 77.1469 47.3798 77.1469H47.363V67.7871H47.3798C49.9647 67.7871 52.061 69.8806 52.061 72.4656Z" fill="#029291"/>
<path d="M49.7275 72.4648C49.7275 73.7628 48.6751 74.8124 47.3799 74.8124H47.3631C46.0762 74.8041 45.0322 73.7573 45.0322 72.4648C45.0322 71.1751 46.0762 70.1256 47.3631 70.1172H47.3799C48.6751 70.1172 49.7275 71.1696 49.7275 72.4648Z" fill="#81F700"/>
<path d="M49.7274 72.4648C49.7274 73.7628 48.675 74.8124 47.3798 74.8124H47.363V70.1172H47.3798C48.675 70.1172 49.7274 71.1696 49.7274 72.4648Z" fill="#00CC7F"/>
<path d="M40.9714 58.5953C40.9714 58.9825 40.658 59.294 40.2727 59.294H37.1344L39.3544 61.514C39.6259 61.7855 39.6259 62.2286 39.3544 62.5023C39.2167 62.638 39.0389 62.7059 38.8593 62.7059C38.6815 62.7059 38.5019 62.638 38.3662 62.5023L36.1462 60.2823V63.4205C36.1462 63.7919 35.8547 64.0973 35.4874 64.1173C35.4734 64.1193 35.4615 64.1193 35.4475 64.1193C35.0623 64.1193 34.7488 63.8059 34.7488 63.4205V60.2823L32.5308 62.5023C32.393 62.638 32.2154 62.7059 32.0357 62.7059C31.858 62.7059 31.6783 62.638 31.5425 62.5023C31.269 62.2288 31.269 61.7856 31.5425 61.514L33.7605 59.294H30.6243C30.237 59.294 29.9255 58.9825 29.9255 58.5953C29.9255 58.21 30.2369 57.8965 30.6243 57.8965H33.7605L31.5425 55.6785C31.269 55.405 31.269 54.9639 31.5425 54.6902C31.816 54.4167 32.2573 54.4167 32.5308 54.6902L34.7488 56.9082V53.772C34.7488 53.3847 35.0623 53.0732 35.4475 53.0732C35.4615 53.0732 35.4735 53.0732 35.4874 53.0752C35.8548 53.0952 36.1462 53.3986 36.1462 53.772V56.9082L38.3662 54.6902C38.6377 54.4167 39.0808 54.4167 39.3544 54.6902C39.6259 54.9637 39.6259 55.405 39.3544 55.6785L37.1344 57.8965H40.2727C40.658 57.8965 40.9714 58.21 40.9714 58.5953Z" fill="#81F700"/>
<path d="M40.9713 58.596C40.9713 58.9833 40.6579 59.2948 40.2726 59.2948H37.1343L39.3543 61.5148C39.6258 61.7863 39.6258 62.2294 39.3543 62.503C39.2166 62.6388 39.0388 62.7067 38.8592 62.7067C38.6814 62.7067 38.5018 62.6388 38.3661 62.503L36.1461 60.283V63.4213C36.1461 63.7927 35.8546 64.098 35.4873 64.118V53.0762C35.8547 53.0962 36.1461 53.3995 36.1461 53.7729V56.9092L38.3661 54.6912C38.6376 54.4177 39.0807 54.4177 39.3543 54.6912C39.6258 54.9647 39.6258 55.4059 39.3543 55.6794L37.1343 57.8974H40.2726C40.6579 57.8973 40.9713 58.2108 40.9713 58.596Z" fill="#00CC7F"/>
<path d="M38.8471 58.5949C38.8471 60.4435 37.3479 61.9428 35.4992 61.9428H35.4872C33.6446 61.9368 32.1514 60.4395 32.1514 58.5949C32.1514 56.7503 33.6446 55.255 35.4872 55.249H35.4992C37.3479 55.249 38.8471 56.7463 38.8471 58.5949Z" fill="#00CC7F"/>
<path d="M38.8472 58.5949C38.8472 60.4435 37.3479 61.9428 35.4993 61.9428H35.4873V55.249H35.4993C37.3479 55.249 38.8472 56.7463 38.8472 58.5949Z" fill="#029291"/>
<path d="M37.1781 58.595C37.1781 59.5233 36.4254 60.2739 35.4992 60.2739H35.4872C34.5669 60.2679 33.8203 59.5193 33.8203 58.595C33.8203 57.6726 34.5669 56.922 35.4872 56.916H35.4992C36.4254 56.9161 37.1781 57.6688 37.1781 58.595Z" fill="#81F700"/>
<path d="M37.1782 58.595C37.1782 59.5233 36.4256 60.2739 35.4993 60.2739H35.4873V56.916H35.4993C36.4256 56.9161 37.1782 57.6688 37.1782 58.595Z" fill="#00CC7F"/>
<path d="M69.6683 78.0711C69.6683 78.4154 69.3896 78.6922 69.0471 78.6922H66.2571L68.2308 80.6657C68.4721 80.9071 68.4721 81.3011 68.2308 81.5442C68.1083 81.665 67.9504 81.7252 67.7906 81.7252C67.6326 81.7252 67.4729 81.6649 67.3523 81.5442L65.3786 79.5707V82.3607C65.3786 82.6909 65.1195 82.9624 64.793 82.9801C64.7806 82.9819 64.77 82.9819 64.7575 82.9819C64.415 82.9819 64.1364 82.7032 64.1364 82.3607V79.5707L62.1646 81.5442C62.0421 81.665 61.8843 81.7252 61.7245 81.7252C61.5665 81.7252 61.4068 81.6649 61.2861 81.5442C61.043 81.3011 61.043 80.9071 61.2861 80.6657L63.2579 78.6922H60.4698C60.1254 78.6922 59.8486 78.4154 59.8486 78.0711C59.8486 77.7286 60.1255 77.45 60.4698 77.45H63.2579L61.2861 75.4781C61.043 75.235 61.043 74.8427 61.2861 74.5996C61.5293 74.3565 61.9215 74.3565 62.1646 74.5996L64.1364 76.5715V73.7832C64.1364 73.439 64.415 73.1621 64.7575 73.1621C64.7699 73.1621 64.7806 73.1621 64.793 73.1639C65.1196 73.1816 65.3786 73.4514 65.3786 73.7832V76.5715L67.3523 74.5996C67.5936 74.3565 67.9876 74.3565 68.2308 74.5996C68.4721 74.8427 68.4721 75.235 68.2308 75.4781L66.2571 77.45H69.0471C69.3896 77.45 69.6683 77.7286 69.6683 78.0711Z" fill="#81F700"/>
<path d="M69.6682 78.0714C69.6682 78.4157 69.3896 78.6926 69.0471 78.6926H66.2571L68.2307 80.6661C68.4721 80.9074 68.4721 81.3014 68.2307 81.5446C68.1082 81.6653 67.9503 81.7256 67.7906 81.7256C67.6326 81.7256 67.4728 81.6652 67.3522 81.5446L65.3786 79.5711V82.3611C65.3786 82.6912 65.1195 82.9627 64.793 82.9804V73.1641C65.1196 73.1818 65.3786 73.4516 65.3786 73.7834V76.5717L67.3522 74.5998C67.5936 74.3567 67.9876 74.3567 68.2307 74.5998C68.4721 74.8429 68.4721 75.2352 68.2307 75.4783L66.2571 77.4502H69.0471C69.3896 77.4503 69.6682 77.7289 69.6682 78.0714Z" fill="#00CC7F"/>
<path d="M67.7798 78.0712C67.7798 79.7147 66.4469 81.0476 64.8034 81.0476H64.7928C63.1546 81.0422 61.8271 79.7112 61.8271 78.0712C61.8271 76.4312 63.1546 75.1019 64.7928 75.0967H64.8034C66.4469 75.0967 67.7798 76.4277 67.7798 78.0712Z" fill="#00CC7F"/>
<path d="M67.7797 78.0712C67.7797 79.7147 66.4468 81.0476 64.8033 81.0476H64.7927V75.0967H64.8033C66.4468 75.0967 67.7797 76.4277 67.7797 78.0712Z" fill="#029291"/>
<path d="M66.2959 78.0708C66.2959 78.896 65.6268 79.5634 64.8033 79.5634H64.7927C63.9745 79.558 63.3108 78.8925 63.3108 78.0708C63.3108 77.2508 63.9745 76.5835 64.7927 76.5781H64.8033C65.6268 76.5781 66.2959 77.2473 66.2959 78.0708Z" fill="#81F700"/>
<path d="M66.296 78.0706C66.296 78.8959 65.6268 79.5632 64.8033 79.5632H64.7927V76.5781H64.8033C65.6268 76.578 66.296 77.2471 66.296 78.0706Z" fill="#00CC7F"/>
<path d="M52.2494 41.6616C52.2494 42.0489 51.936 42.3604 51.5506 42.3604H48.4124L50.6324 44.5804C50.9039 44.8519 50.9039 45.295 50.6324 45.5686C50.4946 45.7044 50.317 45.7723 50.1372 45.7723C49.9595 45.7723 49.7799 45.7044 49.6441 45.5686L47.4241 43.3486V46.4869C47.4241 46.8583 47.1326 47.1636 46.7652 47.1836C46.7512 47.1856 46.7394 47.1856 46.7254 47.1856C46.3401 47.1856 46.0266 46.8723 46.0266 46.4869V43.3486L43.8086 45.5686C43.6709 45.7044 43.4932 45.7723 43.3135 45.7723C43.1359 45.7723 42.9561 45.7044 42.8204 45.5686C42.5469 45.2951 42.5469 44.8519 42.8204 44.5804L45.0384 42.3604H41.9021C41.5147 42.3604 41.2034 42.0489 41.2034 41.6616C41.2034 41.2764 41.5147 40.9629 41.9021 40.9629H45.0384L42.8204 38.7449C42.5469 38.4714 42.5469 38.0303 42.8204 37.7566C43.0939 37.4831 43.5351 37.4831 43.8086 37.7566L46.0266 39.9746V36.8384C46.0266 36.4511 46.34 36.1396 46.7254 36.1396C46.7394 36.1396 46.7514 36.1396 46.7652 36.1416C47.1326 36.1616 47.4241 36.465 47.4241 36.8384V39.9746L49.6441 37.7566C49.9156 37.4831 50.3587 37.4831 50.6324 37.7566C50.9039 38.0301 50.9039 38.4714 50.6324 38.7449L48.4124 40.9629H51.5506C51.936 40.963 52.2494 41.2764 52.2494 41.6616Z" fill="#81F700"/>
<path d="M52.2493 41.6625C52.2493 42.0497 51.9359 42.3612 51.5505 42.3612H48.4123L50.6323 44.5812C50.9038 44.8527 50.9038 45.2958 50.6323 45.5695C50.4945 45.7052 50.3169 45.7731 50.1371 45.7731C49.9594 45.7731 49.7798 45.7052 49.644 45.5695L47.424 43.3495V46.4877C47.424 46.8591 47.1325 47.1645 46.7651 47.1845V36.1426C47.1325 36.1626 47.424 36.466 47.424 36.8393V39.9756L49.644 37.7576C49.9155 37.4841 50.3586 37.4841 50.6323 37.7576C50.9038 38.0311 50.9038 38.4723 50.6323 38.7458L48.4123 40.9638H51.5505C51.9359 40.9638 52.2493 41.2772 52.2493 41.6625Z" fill="#00CC7F"/>
<path d="M50.1252 41.6613C50.1252 43.5099 48.6259 45.0092 46.7773 45.0092H46.7653C44.9227 45.0032 43.4294 43.5059 43.4294 41.6613C43.4294 39.8167 44.9227 38.3214 46.7653 38.3154H46.7773C48.6259 38.3154 50.1252 39.8128 50.1252 41.6613Z" fill="#00CC7F"/>
<path d="M50.1253 41.6613C50.1253 43.5099 48.626 45.0092 46.7774 45.0092H46.7654V38.3154H46.7774C48.626 38.3154 50.1253 39.8128 50.1253 41.6613Z" fill="#029291"/>
<path d="M48.4564 41.6613C48.4564 42.5896 47.7038 43.3402 46.7775 43.3402H46.7655C45.8453 43.3342 45.0986 42.5856 45.0986 41.6613C45.0986 40.7389 45.8453 39.9883 46.7655 39.9824H46.7775C47.7038 39.9824 48.4564 40.735 48.4564 41.6613Z" fill="#81F700"/>
<path d="M48.4563 41.6614C48.4563 42.5897 47.7036 43.3403 46.7774 43.3403H46.7654V39.9824H46.7774C47.7036 39.9825 48.4563 40.7352 48.4563 41.6614Z" fill="#00CC7F"/>
</g>
<defs>
<clipPath id="clip0">
<rect width="64" height="64" fill="white" transform="translate(27 24)"/>
</clipPath>
</defs>
</svg>
