<svg width="119" height="114" viewBox="0 0 119 114" fill="none" xmlns="http://www.w3.org/2000/svg">
<path d="M0 10C0 4.47716 4.47715 0 10 0H109C114.523 0 119 4.47715 119 10V114H0V10Z" fill="#606AEA" fill-opacity="0.1"/>
<path d="M91 55C91 72.6733 76.6733 87 59 87C41.3267 87 27 72.6733 27 55C27 37.3267 41.3267 23 59 23C76.6733 23 91 37.3267 91 55Z" fill="#606AEA"/>
<path d="M70.9998 55L62.8435 54.98L54.686 54.96L58.9998 23H68.3448L70.9998 55Z" fill="#FF69AB"/>
<path d="M59 49.408V23H51V39H27V47H40.2611L59 49.408Z" fill="#FFC7B8"/>
<path d="M71 55L62.8438 54.98V23H68.345L71 55Z" fill="#DE5B95"/>
<path d="M70.9989 54.9205C71.0757 59.538 67.2612 63.1264 62.8438 62.9963C62.3988 62.9838 61.9475 62.9325 61.4938 62.8413L43 59.1175L41.6725 87H27V83L34.2038 79.265L34.8703 52.2595C34.9424 49.334 37.3347 47 40.2611 47H62.8228C67.2394 47 70.9254 50.5044 70.9989 54.9205Z" fill="#FAB096"/>
<path d="M71 55.0575C71 59.6087 67.2175 63.125 62.8438 62.9963V47C67.2937 47 71 50.6075 71 55.0575Z" fill="#E38B85"/>
<path d="M90.9998 47V67L86.9998 71V87H58.9998V76.8162C55.6286 75.0938 53.1161 72.1737 51.8711 68.7287L62.8436 65.4925L78.9998 60.7287V47L84.9998 43L90.9998 47Z" fill="#DED6FA"/>
<path d="M91 47V67L87 71V87H62.8438V65.4925L79 60.7287V47L85 43L91 47Z" fill="#BCB2DF"/>
<path d="M79 39H91V47H79V39Z" fill="#DED6FA"/>
<path d="M79 60.7285V68.7285H51.8713C51.3038 67.156 51 65.4735 51 63.7448V60.7285H79Z" fill="#F1F1FA"/>
<path d="M62.8438 60.7285H79V68.7285H62.8438V60.7285Z" fill="#DED6FA"/>
</svg>
