<svg width="119" height="114" viewBox="0 0 119 114" fill="none" xmlns="http://www.w3.org/2000/svg">
<path d="M0 10C0 4.47716 4.47715 0 10 0H109C114.523 0 119 4.47715 119 10V114H0V10Z" fill="#EAFBFB"/>
<path d="M91 56C91 73.6733 76.6733 88 59 88C41.3267 88 27 73.6733 27 56C27 38.3267 41.3267 24 59 24C76.6733 24 91 38.3267 91 56Z" fill="#77E1FD"/>
<path d="M38 58.7041L66.4453 87.1494C78.2636 84.3694 87.5554 75.0386 90.277 63.1979L83.0791 56L38 58.7041Z" fill="#1093B6"/>
<g clip-path="url(#clip0)">
<path d="M83.2174 56.1421C79.1863 64.4718 70.8467 70.3975 60.9526 70.881C60.0347 70.9258 59.1267 70.9228 58.2285 70.8739C49.4469 70.3973 41.7346 65.5472 37.3569 58.383C41.0153 50.8262 48.218 45.2472 56.9112 43.9168C57.8004 43.7807 58.7038 43.689 59.6217 43.6442C69.5158 43.1607 78.3934 48.2451 83.2174 56.1421Z" fill="#EAEAEA"/>
<path d="M53.1929 57.6091C53.439 62.6452 55.2911 67.2245 58.2285 70.8738C49.4469 70.3971 41.7346 65.5471 37.3569 58.3829C41.0153 50.826 48.218 45.2471 56.9112 43.9166C54.3436 47.8348 52.9468 52.5728 53.1929 57.6091Z" fill="#DFDFDF"/>
<path d="M81.1235 28.9915L74.9147 29.2949C74.0551 29.3369 73.3015 29.8828 72.9936 30.6865L69.3839 40.1106C68.8685 41.4564 69.9056 42.8881 71.3449 42.8177L76.0623 42.5872L73.7692 50.3638C73.1716 52.3904 75.7469 53.8115 77.1429 52.2255L84.1081 44.312C85.3759 42.8715 84.2889 40.6149 82.3721 40.7086L79.2837 40.8595L83.212 32.0429C83.8705 30.5653 82.7393 28.9126 81.1235 28.9915Z" fill="#FFDF7D"/>
<path d="M72.825 39.9425L76.4348 30.5184C76.7426 29.7147 77.4962 29.1688 78.3558 29.1267L74.9147 29.2949C74.0551 29.3369 73.3015 29.8828 72.9936 30.6865L69.3839 40.1106C68.8685 41.4564 69.9056 42.8881 71.3449 42.8177L74.786 42.6496C73.3467 42.72 72.3096 41.2882 72.825 39.9425Z" fill="#FFCF64"/>
<path d="M77.2101 50.1959L79.5032 42.4193L76.0621 42.5875L73.769 50.364C73.1714 52.3906 75.7467 53.8118 77.1427 52.2257L77.4609 51.8642C77.1509 51.4199 77.0207 50.8386 77.2101 50.1959Z" fill="#FFCF64"/>
<path d="M45.9998 54.5415C46.1787 54.5327 46.3547 54.458 46.4882 54.3183L48.0857 52.6459L51.1981 54.6909C51.3314 54.7784 51.4828 54.8163 51.6306 54.809C51.8539 54.7981 52.0691 54.6844 52.2012 54.4832C52.421 54.1489 52.328 53.6998 51.9936 53.4801L48.6132 51.2592L48.266 49.8647C48.1693 49.4765 47.7763 49.2403 47.3881 49.3369C46.9999 49.4336 46.7636 49.8266 46.8603 50.2148L47.1797 51.4971L45.4406 53.3177C45.1642 53.607 45.1748 54.0654 45.4641 54.3418C45.6136 54.4846 45.8083 54.5508 45.9998 54.5415Z" fill="#FD4755"/>
<path d="M50.9975 58.4321C51.0381 58.4368 51.0785 58.4381 51.1181 58.4362C51.4652 58.4192 51.7594 58.1537 51.8013 57.797C51.8479 57.3997 51.5637 57.0398 51.1663 56.9932L43.5345 56.0977C43.1369 56.0512 42.7772 56.3354 42.7307 56.7327C42.6841 57.1301 42.9684 57.49 43.3657 57.5365L45.3702 57.7717L43.9129 59.5686C43.661 59.8793 43.7086 60.3354 44.0193 60.5874C44.1635 60.7042 44.3388 60.7567 44.5106 60.7483C44.7093 60.7386 44.903 60.6476 45.0381 60.4811L47.0733 57.9716L50.9975 58.4321Z" fill="#FD4755"/>
<path d="M53.8767 63.0297C53.7165 62.6631 53.2898 62.4957 52.923 62.6559L49.9837 63.9398L47.9068 62.3606C47.5882 62.1184 47.1338 62.1804 46.8918 62.4987C46.6496 62.8172 46.7115 63.2716 47.0299 63.5138L48.972 64.9905L48.5089 65.9395C48.3335 66.299 48.4827 66.7327 48.8423 66.9081C48.9558 66.9634 49.0767 66.9865 49.1946 66.9808C49.4499 66.9682 49.6908 66.8207 49.8109 66.5747L50.4179 65.3309L53.5028 63.9833C53.8694 63.8234 54.0368 63.3963 53.8767 63.0297Z" fill="#FD4755"/>
<path d="M79.2041 55.3453C78.9892 55.0079 78.5414 54.9084 78.2041 55.1232L74.8249 57.2739L69.6523 56.1066C69.2619 56.0182 68.8744 56.2635 68.7863 56.6537C68.6981 57.0439 68.9432 57.4316 69.3334 57.5197L74.4214 58.6679L75.4035 61.237C75.5182 61.5372 75.8109 61.7169 76.1153 61.702C76.1898 61.6984 76.2651 61.6831 76.3387 61.655C76.7123 61.5121 76.8994 61.0934 76.7566 60.7198L75.8471 58.3403L78.9819 56.3453C79.3193 56.1305 79.4188 55.6828 79.2041 55.3453Z" fill="#FE646F"/>
<path d="M71.4905 51.3344C71.3444 50.962 70.9241 50.7786 70.5515 50.9248L68.0276 51.9154C67.6553 52.0615 67.4719 52.4819 67.618 52.8543C67.7346 53.1513 68.0256 53.3281 68.3276 53.3134C68.4043 53.3096 68.4816 53.2935 68.557 53.264L71.0809 52.2733C71.4532 52.1271 71.6367 51.7068 71.4905 51.3344Z" fill="#FE646F"/>
<path d="M69.9739 56.7893C70.2354 62.1403 66.1111 66.6883 60.7601 66.9498C58.6173 67.0545 56.6023 66.4558 54.94 65.3543C52.4536 63.7096 50.7563 60.943 50.5996 57.736C50.4429 54.529 51.8624 51.6101 54.1766 49.7308C55.7236 48.4725 57.6706 47.6802 59.8134 47.5755C65.1644 47.314 69.7125 51.4394 69.9739 56.7893Z" fill="#89C8FD"/>
<path d="M64.3651 55.3023C65.678 55.2381 66.6903 54.1218 66.6262 52.8089C66.562 51.496 65.4457 50.4837 64.1328 50.5479C62.8199 50.6121 61.8076 51.7284 61.8718 53.0413C61.9359 54.3542 63.0522 55.3665 64.3651 55.3023Z" fill="#AEDEFF"/>
<path d="M53.1927 57.6099C53.3267 60.3525 53.9373 62.9604 54.9402 65.3549C52.4538 63.7102 50.7564 60.9436 50.5997 57.7366C50.443 54.5296 51.8625 51.6106 54.1768 49.7314C53.4121 52.2122 53.0587 54.8672 53.1927 57.6099Z" fill="#60B6FF"/>
<path d="M60.4782 61.1656C62.6334 61.0603 64.2951 59.2279 64.1898 57.0727C64.0845 54.9175 62.252 53.2558 60.0969 53.3611C57.9417 53.4664 56.28 55.2989 56.3853 57.454C56.4906 59.6092 58.3231 61.271 60.4782 61.1656Z" fill="#818181"/>
<path d="M61.7881 60.8717C61.3825 61.0393 60.9419 61.1425 60.4775 61.1652C58.3226 61.2705 56.4905 59.6082 56.3852 57.4533C56.2799 55.2984 57.9412 53.4664 60.0961 53.3611C60.5606 53.3384 61.0091 53.3982 61.4291 53.5255C59.95 54.1406 58.944 55.6326 59.0267 57.3242C59.1093 59.0157 60.2561 60.4037 61.7881 60.8717Z" fill="#595959"/>
</g>
<defs>
<clipPath id="clip0">
<rect width="48" height="41" fill="white" transform="translate(36.0283 31.1953) rotate(-2.79749)"/>
</clipPath>
</defs>
</svg>
