<svg width="119" height="114" viewBox="0 0 119 114" fill="none" xmlns="http://www.w3.org/2000/svg">
<path d="M0 10C0 4.47716 4.47715 0 10 0H109C114.523 0 119 4.47715 119 10V114H0V10Z" fill="#FF9E22" fill-opacity="0.1"/>
<path d="M59 88C76.6731 88 91 73.6731 91 56C91 38.3269 76.6731 24 59 24C41.3269 24 27 38.3269 27 56C27 73.6731 41.3269 88 59 88Z" fill="#FF9E22"/>
<path d="M37.9102 58.7041L66.3554 87.1494C78.1738 84.3694 87.4655 75.0386 90.1872 63.1979L82.9893 56L37.9102 58.7041Z" fill="#E17726"/>
<path d="M82.989 55.9999C82.989 55.9999 72.3341 69.1355 59.1905 69.1355C46.0468 69.1355 35.3921 55.9999 35.3921 55.9999C35.3921 55.9999 46.047 42.8643 59.1906 42.8643C72.3342 42.8643 82.989 55.9999 82.989 55.9999Z" fill="#EEF4FF"/>
<path d="M82.9889 55.9999C82.9889 55.9999 72.3341 69.1355 59.1904 69.1355V42.8643C72.3341 42.8643 82.9889 55.9999 82.9889 55.9999Z" fill="#D6E9F8"/>
<path d="M59.1908 68.3456C66.0094 68.3456 71.537 62.818 71.537 55.9995C71.537 49.1809 66.0094 43.6533 59.1908 43.6533C52.3723 43.6533 46.8447 49.1809 46.8447 55.9995C46.8447 62.818 52.3723 68.3456 59.1908 68.3456Z" fill="#804111"/>
<path d="M71.537 55.9995C71.537 62.8181 66.0094 68.3456 59.1909 68.3456V43.6533C66.0095 43.6533 71.537 49.1809 71.537 55.9995Z" fill="#62320D"/>
<path d="M66.9538 55.9995C66.9538 60.2868 63.4781 63.7626 59.1906 63.7626C55.7418 63.7626 52.8181 61.5136 51.8065 58.4021L51.7859 53.6613C52.7779 50.5165 55.718 48.2363 59.1906 48.2363C63.478 48.2365 66.9538 51.7121 66.9538 55.9995Z" fill="#464646"/>
<path d="M51.7867 53.6611C51.5539 54.3991 51.4277 55.1844 51.4277 55.9993C51.4277 56.838 51.5624 57.6449 51.8085 58.4016L56.5381 56.0369L51.7867 53.6611Z" fill="#EEF4FF"/>
<path d="M66.954 55.9995C66.954 51.7121 63.4784 48.2363 59.1909 48.2363V63.7626C63.4783 63.7626 66.954 60.287 66.954 55.9995Z" fill="#2D2D2D"/>
<path d="M31.9676 79.2824C30.9478 78.2627 30.7076 76.6994 31.3738 75.4206L33.9592 70.4586C34.1042 70.1803 34.5023 70.1803 34.6472 70.4586L37.2326 75.4206C37.8989 76.6994 37.6586 78.2628 36.6388 79.2824C35.3489 80.5724 33.2576 80.5724 31.9676 79.2824ZM40.4819 79.0029C39.1676 77.6886 38.8578 75.6736 39.7167 74.0252L43.0489 67.6296C43.2358 67.2709 43.7489 67.2709 43.9358 67.6296L47.2681 74.0252C48.1269 75.6736 47.8172 77.6886 46.5028 79.0029C44.8403 80.6656 42.1447 80.6656 40.4819 79.0029ZM32.5082 65.8433C31.8767 65.2118 31.7279 64.2438 32.1406 63.4518L33.7416 60.3792C33.8313 60.2069 34.0778 60.2069 34.1677 60.3792L35.7687 63.4518C36.1813 64.2438 36.0324 65.2118 35.4011 65.8433C34.6021 66.6421 33.3071 66.6421 32.5082 65.8433Z" fill="#EAFBFB"/>
<path d="M37.4608 75.9764C37.8154 77.1295 37.5145 78.4063 36.6388 79.282C35.3489 80.572 33.2574 80.572 31.9675 79.282C31.0918 78.4063 30.7909 77.1295 31.1455 75.9764C31.3002 76.4805 31.5765 76.9515 31.9675 77.3424C33.2575 78.6323 35.3489 78.6323 36.6388 77.3424C37.0298 76.9515 37.3062 76.4805 37.4608 75.9764ZM47.5623 74.7418C47.3629 75.3916 47.0068 75.9985 46.5028 76.5025C44.8401 78.1651 42.1444 78.1651 40.4818 76.5025C39.9778 75.9985 39.6215 75.3916 39.4223 74.7418C38.9653 76.2281 39.353 77.8738 40.4818 79.0025C42.1444 80.6651 44.8401 80.6651 46.5028 79.0025C47.6315 77.8738 48.0194 76.2281 47.5623 74.7418ZM32.508 65.8429C33.3068 66.6416 34.6019 66.6416 35.4007 65.8429C35.9429 65.3006 36.1293 64.51 35.9097 63.7959C35.8139 64.1081 35.6428 64.3996 35.4007 64.6418C34.6019 65.4405 33.3068 65.4405 32.508 64.6418C32.2659 64.3996 32.0948 64.108 31.999 63.7959C31.7794 64.5099 31.9658 65.3005 32.508 65.8429Z" fill="#64E1DC"/>
</svg>
