<svg width="119" height="114" viewBox="0 0 119 114" fill="none" xmlns="http://www.w3.org/2000/svg">
<path d="M0 10C0 4.47716 4.47715 0 10 0H109C114.523 0 119 4.47715 119 10V114H0V10Z" fill="#F44545" fill-opacity="0.1"/>
<path d="M91 58C91 75.6731 76.6731 90 59 90C41.3269 90 27 75.6731 27 58C27 40.3269 41.3269 26 59 26C76.6731 26 91 40.3269 91 58Z" fill="#F44545"/>
<path d="M82.428 57.9995C82.428 70.9385 71.9389 81.4278 58.9998 81.4278C46.0607 81.4278 35.5715 70.9385 35.5715 57.9995C35.5715 45.0605 46.0608 34.5713 58.9998 34.5713C71.9388 34.5713 82.428 45.0605 82.428 57.9995Z" fill="#FB5858"/>
<path d="M85.7538 39.6808L80.2397 45.1949L71.8472 36.8024L77.3613 31.2883C78.648 30.0016 80.7343 30.0016 82.0212 31.2883L85.7539 35.0211C87.0405 36.3078 87.0405 38.3941 85.7538 39.6808Z" fill="#717ED6"/>
<path d="M55.2831 71.8065L48.705 72.9945C47.163 73.273 45.743 74.016 44.635 75.124L39.6576 80.1014C38.8856 80.8734 37.6337 80.8734 36.8617 80.1014C36.0897 79.3294 36.0897 78.0775 36.8617 77.3055L41.8626 72.3047C42.956 71.2113 43.6942 69.8137 43.981 68.2943L45.2217 61.7217C45.5085 60.2023 46.2468 58.8047 47.3401 57.7113L68.1275 36.924C69.4142 35.6373 71.5005 35.6373 72.7873 36.924L80.1168 44.2535C81.4036 45.5403 81.4036 47.6265 80.1168 48.9134L59.3531 69.6772C58.2451 70.785 56.825 71.528 55.2831 71.8065Z" fill="#C8E2FD"/>
<path d="M78.2428 41.8202L78.8179 42.3954C80.9767 44.5541 80.9767 48.0541 78.8179 50.2127L64.6366 64.3941C63.2132 65.8175 60.9055 65.8175 59.4822 64.3941L56.244 61.156C54.8207 59.7326 54.8207 57.425 56.244 56.0016L70.4254 41.8202C72.5841 39.6615 76.0841 39.6615 78.2428 41.8202Z" fill="#E9F3FE"/>
<path d="M62.1272 60.6083L57.2526 65.4829C56.7645 65.971 55.973 65.971 55.4848 65.4829L51.5592 61.5573C51.0711 61.0692 51.0711 60.2777 51.5592 59.7895L56.4338 54.9149C56.922 54.4268 57.7135 54.4268 58.2016 54.9149L62.1272 58.8405C62.6153 59.3287 62.6153 60.1202 62.1272 60.6083Z" fill="#20B7A1"/>
<path d="M69.7185 53.0165L61.7722 60.9628C60.3077 62.4273 57.9333 62.4273 56.469 60.9628L56.0788 60.5726C54.6143 59.1081 54.6143 56.7338 56.0788 55.2694L64.0251 47.3231C64.5132 46.835 65.3047 46.835 65.7928 47.3231L69.7185 51.2488C70.2066 51.7369 70.2066 52.5284 69.7185 53.0165Z" fill="#24D3B5"/>
<path d="M64.9718 50.2963L66.9347 52.2592C67.1788 52.5033 67.1788 52.8989 66.9347 53.143L66.8697 53.208C66.6255 53.4522 66.2299 53.4522 65.9858 53.208L64.0229 51.2452C63.7788 51.001 63.7788 50.6054 64.0229 50.3613L64.0879 50.2963C64.3319 50.0523 64.7277 50.0523 64.9718 50.2963ZM63.0739 52.1942C62.8298 51.95 62.4342 51.95 62.19 52.1942L62.125 52.2592C61.8809 52.5033 61.8809 52.8989 62.125 53.143L64.0879 55.1059C64.332 55.35 64.7277 55.35 64.9718 55.1059L65.0368 55.0409C65.2809 54.7968 65.2809 54.4012 65.0368 54.157L63.0739 52.1942ZM59.2783 55.9898C59.0342 55.7457 58.6385 55.7457 58.3944 55.9898L58.3294 56.0548C58.0853 56.2989 58.0853 56.6945 58.3294 56.9387L60.2923 58.9015C60.5364 59.1457 60.932 59.1457 61.1762 58.9015L61.2412 58.8365C61.4853 58.5924 61.4853 58.1968 61.2412 57.9527L59.2783 55.9898ZM61.176 54.0919C60.9319 53.8478 60.5363 53.8478 60.2922 54.0919L60.2272 54.1569C59.983 54.401 59.983 54.7967 60.2272 55.0408L60.2922 55.1058C60.5363 55.3499 60.9319 55.3499 61.176 55.1058L61.241 55.0408C61.4852 54.7967 61.4852 54.401 61.241 54.1569L61.176 54.0919ZM63.0739 55.9898C62.8298 55.7457 62.4342 55.7457 62.19 55.9898L62.125 56.0548C61.8809 56.2989 61.8809 56.6945 62.125 56.9387L62.19 57.0037C62.4342 57.2478 62.8298 57.2478 63.0739 57.0037L63.1389 56.9387C63.383 56.6945 63.383 56.2989 63.1389 56.0548L63.0739 55.9898ZM56.4315 62.6322C56.1874 62.388 55.7918 62.388 55.5477 62.6322L55.4827 62.6972C55.2385 62.9413 55.2385 63.3369 55.4827 63.581L55.5477 63.646C55.7918 63.8902 56.1874 63.8902 56.4315 63.646L56.4965 63.581C56.7407 63.3369 56.7407 62.9413 56.4965 62.6972L56.4315 62.6322Z" fill="#ADEBDC"/>
<path d="M36.1452 80.6272L36.3368 80.8188C37.0559 81.5379 37.0559 82.7039 36.3368 83.423L34.3589 85.4009C33.6398 86.12 32.4738 86.12 31.7547 85.4009L31.563 85.2093C30.8439 84.4902 30.8439 83.3242 31.563 82.605L33.5409 80.6272C34.26 79.908 35.426 79.908 36.1452 80.6272ZM67.9709 47.4248L69.6168 49.0707C70.0008 49.4547 70.6234 49.4547 71.0074 49.0707L72.4635 47.6145C72.8475 47.2305 72.8475 46.6079 72.4635 46.2239L70.8176 44.578C70.4337 44.194 69.811 44.194 69.427 44.578L67.9709 46.0342C67.5869 46.4182 67.5869 47.0408 67.9709 47.4248Z" fill="#8C96DD"/>
<path d="M40.1832 76.5892L40.3748 76.7809C41.094 77.5 41.094 78.666 40.3748 79.3851L34.6096 85.1504L31.8137 82.3545L37.579 76.5892C38.2981 75.8701 39.4641 75.8701 40.1832 76.5892ZM73.2233 46.8547L72.1443 47.9337C71.6562 48.4219 70.8647 48.4219 70.3766 47.9337L69.1078 46.665C68.6197 46.1769 68.6197 45.3854 69.1078 44.8972L70.1868 43.8182C70.675 43.3301 71.4665 43.3301 71.9546 43.8182L73.2233 45.087C73.7115 45.5751 73.7115 46.3666 73.2233 46.8547Z" fill="#A6AEE5"/>
<path d="M86.0762 42.9543L81.3701 47.6604C80.9238 48.1067 80.2005 48.1067 79.7542 47.6604L69.3808 37.2871C68.9346 36.8408 68.9346 36.1174 69.3808 35.6712L74.087 30.9651C75.3737 29.6783 77.46 29.6783 78.7468 30.9651L86.0763 38.2946C87.363 39.5813 87.363 41.6676 86.0762 42.9543Z" fill="#8C96DD"/>
<path d="M82.394 34.6116L86.0766 38.2942C87.3634 39.5809 87.3634 41.6672 86.0766 42.9541L81.2847 47.7459C80.8858 48.1448 80.2391 48.1448 79.8401 47.7459L78.8207 46.7266L72.9422 40.8479C72.5433 40.4491 72.5433 39.8023 72.9422 39.4033L77.7341 34.6114C79.0208 33.3248 81.1071 33.3248 82.394 34.6116Z" fill="#A6AEE5"/>
<path d="M68.0684 36.9829L69.4917 35.5596L81.481 47.5488L80.0576 48.9722L68.0684 36.9829Z" fill="#717ED6"/>
<path d="M81.0406 40.7457C79.7304 42.0558 77.6062 42.0558 76.2961 40.7457C74.9859 39.4355 74.9859 37.3113 76.2961 36.0011C77.6062 34.691 79.7304 34.691 81.0406 36.0011C82.3507 37.3113 82.3507 39.4355 81.0406 40.7457Z" fill="#E9F3FE"/>
<path d="M80.0916 39.7967C79.3055 40.5828 78.031 40.5828 77.2449 39.7967C76.4587 39.0106 76.4587 37.7361 77.2449 36.9499C78.031 36.1638 79.3055 36.1638 80.0916 36.9499C80.8776 37.7361 80.8776 39.0106 80.0916 39.7967Z" fill="#C8E2FD"/>
<path d="M71.8164 69.9324C72.0605 70.1766 72.0605 70.5722 71.8164 70.8163C71.5722 71.0604 71.1766 71.0604 70.9325 70.8163L68.2809 68.1647C68.0367 67.9206 68.0367 67.5249 68.2809 67.2808C68.525 67.0367 68.9206 67.0367 69.1647 67.2808L71.8164 69.9324ZM73.4167 65.4216H70.9167C70.5716 65.4216 70.2917 65.7014 70.2917 66.0466C70.2917 66.3917 70.5716 66.6716 70.9167 66.6716H73.4167C73.7619 66.6716 74.0417 66.3917 74.0417 66.0466C74.0417 65.7014 73.7619 65.4216 73.4167 65.4216ZM66.9706 69.2159C66.6255 69.2159 66.3456 69.4958 66.3456 69.8409V72.3409C66.3456 72.6861 66.6255 72.9659 66.9706 72.9659C67.3157 72.9659 67.5956 72.6861 67.5956 72.3409V69.8409C67.5956 69.4958 67.3159 69.2159 66.9706 69.2159ZM47.0676 45.1838C46.8235 44.9397 46.4279 44.9397 46.1838 45.1838C45.9396 45.4279 45.9396 45.8236 46.1838 46.0677L48.8354 48.7193C49.0795 48.9634 49.4751 48.9634 49.7192 48.7193C49.9634 48.4752 49.9634 48.0796 49.7192 47.8354L47.0676 45.1838ZM47.0833 49.3286H44.5833C44.2381 49.3286 43.9583 49.6084 43.9583 49.9536C43.9583 50.2987 44.2381 50.5786 44.5833 50.5786H47.0833C47.4284 50.5786 47.7083 50.2987 47.7083 49.9536C47.7083 49.6084 47.4285 49.3286 47.0833 49.3286ZM51.0294 43.0342C50.6842 43.0342 50.4044 43.3141 50.4044 43.6592V46.1592C50.4044 46.5043 50.6842 46.7842 51.0294 46.7842C51.3745 46.7842 51.6544 46.5043 51.6544 46.1592V43.6592C51.6544 43.3139 51.3745 43.0342 51.0294 43.0342Z" fill="#FFF5F5"/>
</svg>
