<svg width="118" height="114" viewBox="0 0 118 114" fill="none" xmlns="http://www.w3.org/2000/svg">
<path d="M0 10C0 4.47716 4.47715 0 10 0H108C113.523 0 118 4.47715 118 10V114H0V10Z" fill="#556080" fill-opacity="0.1"/>
<path d="M78.3045 80.5235C86.0175 74.6807 91 65.4222 91 55C91 37.3269 76.6731 23 59 23C41.3269 23 27 37.3269 27 55C27 65.4199 31.9803 74.6765 39.6901 80.5195L78.3045 80.5235Z" fill="#7584F2"/>
<path d="M37.5334 66.4724L51.5821 80.521L58.4038 80.5216L40.8049 62.9229L37.5334 66.4724Z" fill="#4855B7"/>
<path d="M91.0001 55C91.0001 52.9688 90.8109 50.9816 90.449 49.0555L86.4481 45.0546L82.329 46.4131L71.8372 35.9214L69.1634 53.4351L48.3532 32.625L45.4036 35.3786L68.408 58.383L67.6417 63.4016L45.9429 41.7026L33.5525 47.2055L39.6191 53.2721L35.9332 55.0607L45.1607 64.2882L44.9462 64.464L61.0039 80.5218L78.3046 80.5235C86.0176 74.6807 91.0001 65.4222 91.0001 55Z" fill="#4855B7"/>
<path d="M41.4696 43.999L44.5955 45.2023L45.9426 41.7027L36.996 38.2588L33.5522 47.2055L37.0519 48.5525L38.1402 45.7249L40.8986 51.0197C40.9141 51.0494 40.9505 51.119 40.8922 51.2149C40.8342 51.3107 40.7556 51.3107 40.7221 51.3107H35.9331V55.0607H40.7224C42.1145 55.0607 43.3766 54.35 44.0987 53.1598C44.8209 51.9695 44.8679 50.5218 44.2246 49.2872L41.4696 43.999Z" fill="white"/>
<path d="M79.1319 38.8596L76.7088 41.7216L79.0212 43.6794L73.1137 44.543C73.0803 44.548 73.0028 44.5591 72.9315 44.4729C72.8602 44.3865 72.886 44.3124 72.897 44.2806L74.7827 38.8661L71.8374 35.9209L69.3557 43.0473C68.8978 44.362 69.1538 45.7876 70.0404 46.861C70.8359 47.8239 72.0053 48.3419 73.2322 48.2929C73.3728 48.2873 73.5144 48.2741 73.6562 48.2535L79.5562 47.391L77.3918 49.9474L80.2538 52.3705L86.4484 45.0541L79.1319 38.8596Z" fill="#E9EDF5"/>
<path d="M74.7693 82.8519C76.0028 82.1519 77.1853 81.3724 78.3098 80.5203L78.1034 78.1857V78.1855C77.8003 74.7577 75.3384 71.9582 71.9774 71.2192L68.6076 70.4783C70.1587 69.0263 71.3527 67.2199 72.0763 65.2002C74.1549 63.8953 75.5084 61.5775 75.5084 59.0213C75.5084 57.4847 75.0334 56.0212 74.1673 54.8044V52.5244C74.1673 44.6265 67.3633 38.2012 59.0001 38.2012C50.6368 38.2012 43.8328 44.6265 43.8328 52.5244V54.8044C42.9667 56.021 42.4917 57.4845 42.4917 59.0213C42.4917 61.5775 43.8452 63.8953 45.9237 65.2002C46.6473 67.2199 47.8413 69.0263 49.3924 70.4783L46.0226 71.2192C42.6616 71.9582 40.1998 74.7577 39.8967 78.1855L39.6902 80.5202C40.8146 81.3723 41.9971 82.1518 43.2307 82.8518L74.7693 82.8519Z" fill="#64E1DC"/>
<path d="M78.3098 80.5202L78.1034 78.1855V78.1854C77.8003 74.7575 75.3384 71.958 71.9774 71.219L68.6075 70.4782C70.1586 69.0262 71.3526 67.2198 72.0763 65.2C74.1549 63.8952 75.5084 61.5774 75.5084 59.0212C75.5084 57.4845 75.0334 56.021 74.1673 54.8043V52.5243C74.1673 44.6312 67.3714 38.2089 59.0151 38.2012V82.8518H74.7694C76.0028 82.1518 77.1853 81.3723 78.3098 80.5202Z" fill="#00C8C8"/>
<path d="M59.0001 79.7752C62.9954 79.7752 66.4632 77.5175 68.1976 74.2084L64.8186 73.4655C63.9297 73.2701 63.2965 72.4825 63.2965 71.5725V65.0312H54.7036V71.5725C54.7036 72.4826 54.0704 73.2701 53.1815 73.4655L49.8025 74.2084C51.537 77.5176 55.0049 79.7752 59.0001 79.7752Z" fill="#FFBEAA"/>
<path d="M68.1974 74.2084L64.8184 73.4655C63.9295 73.2701 63.2963 72.4825 63.2963 71.5725V65.0312H59.0149V79.775C63.0038 79.7694 66.4653 77.5134 68.1974 74.2084Z" fill="#FAA68E"/>
<path d="M49.7766 62.5733C51.7388 62.5733 53.3294 60.9827 53.3294 59.0205C53.3294 57.0584 51.7388 55.4678 49.7766 55.4678C47.8145 55.4678 46.2239 57.0584 46.2239 59.0205C46.2239 60.9827 47.8145 62.5733 49.7766 62.5733Z" fill="#FFBEAA"/>
<path d="M68.2232 62.5733C70.1853 62.5733 71.7759 60.9827 71.7759 59.0205C71.7759 57.0584 70.1853 55.4678 68.2232 55.4678C66.261 55.4678 64.6704 57.0584 64.6704 59.0205C64.6704 60.9827 66.261 62.5733 68.2232 62.5733Z" fill="#FAA68E"/>
<path d="M59.4055 70.3787H58.5947C53.2227 70.3787 48.8679 66.0238 48.8679 60.6519V55.131C48.8679 49.759 53.2228 45.4043 58.5947 45.4043H59.4055C64.7775 45.4043 69.1323 49.7592 69.1323 55.131V60.6519C69.1323 66.0239 64.7774 70.3787 59.4055 70.3787Z" fill="#FFCDBE"/>
<path d="M59.4055 45.4043H59.0151V70.3787H59.4055C64.7775 70.3787 69.1323 66.0238 69.1323 60.6519V55.131C69.1323 49.7592 64.7774 45.4043 59.4055 45.4043Z" fill="#FFBEAA"/>
<path d="M55.4968 52.4992C55.4968 52.4992 62.1067 58.6854 70.4352 59.0207V52.5239C70.4352 46.6745 65.3156 41.9326 59.0001 41.9326C52.6846 41.9326 47.5649 46.6745 47.5649 52.5239V59.0207C47.5649 59.0207 51.3987 56.6624 55.4968 52.4992Z" fill="#555A66"/>
<path d="M70.435 52.5237C70.435 46.679 65.3234 41.9402 59.0149 41.9326V55.1274C61.7423 56.8569 65.8249 58.835 70.435 59.0206V52.5237Z" fill="#333940"/>
<path d="M58.9998 86.9993C64.7335 86.9993 70.115 85.4914 74.7692 82.8504L74.3857 78.5129C74.2277 76.7258 72.9282 75.2481 71.176 74.8628L66.0783 73.7422C64.9695 76.5673 62.2182 78.5674 58.9998 78.5674C55.7815 78.5674 53.0302 76.5673 51.9213 73.7422L46.8237 74.8628C45.0715 75.2481 43.772 76.7258 43.614 78.5129L43.2305 82.8504C47.8847 85.4914 53.2662 86.9993 58.9998 86.9993Z" fill="#FE6A16"/>
<path d="M74.3859 78.5129C74.2279 76.7258 72.9284 75.2481 71.1761 74.8628L66.0785 73.7422C64.9714 76.5628 62.227 78.5609 59.0151 78.5672V86.9993C64.7431 86.9967 70.1193 85.4892 74.7694 82.8506L74.3859 78.5129Z" fill="#EA3E03"/>
<path d="M59.0002 80.2428C55.335 80.2428 52.1013 78.0385 50.7625 74.627C50.3841 73.6632 50.8588 72.5749 51.8227 72.1967C52.7866 71.8184 53.8748 72.293 54.2531 73.2569C55.0246 75.2227 56.888 76.4928 59.0002 76.4928C61.1125 76.4928 62.9757 75.2227 63.7474 73.2569C64.1256 72.293 65.2136 71.818 66.1777 72.1967C67.1416 72.575 67.6164 73.6632 67.238 74.627C65.8991 78.0385 62.6655 80.2428 59.0002 80.2428Z" fill="white"/>
<path d="M66.1775 72.1967C65.2134 71.818 64.1254 72.293 63.7471 73.2569C62.9774 75.2179 61.1211 76.4864 59.0151 76.4924V80.2424C62.6741 80.2364 65.9008 78.0338 67.2379 74.627C67.6161 73.6632 67.1414 72.575 66.1775 72.1967Z" fill="#E9EDF5"/>
<path d="M39.0451 67.0033C40.3817 67.0033 41.4653 65.9198 41.4653 64.5832C41.4653 63.2466 40.3817 62.1631 39.0451 62.1631C37.7085 62.1631 36.625 63.2466 36.625 64.5832C36.625 65.9198 37.7085 67.0033 39.0451 67.0033Z" fill="white"/>
<path d="M46.7819 35.9217C47.8991 35.9217 48.8048 35.0161 48.8048 33.8989C48.8048 32.7816 47.8991 31.876 46.7819 31.876C45.6647 31.876 44.759 32.7816 44.759 33.8989C44.759 35.0161 45.6647 35.9217 46.7819 35.9217Z" fill="white"/>
<path d="M79.1689 68.7343C80.9835 68.7343 82.4545 67.2633 82.4545 65.4487C82.4545 63.6341 80.9835 62.1631 79.1689 62.1631C77.3543 62.1631 75.8833 63.6341 75.8833 65.4487C75.8833 67.2633 77.3543 68.7343 79.1689 68.7343Z" fill="#E9EDF5"/>
<path d="M81.9758 56.9916C82.8175 56.9916 83.4999 56.3092 83.4999 55.4675C83.4999 54.6257 82.8175 53.9434 81.9758 53.9434C81.134 53.9434 80.4517 54.6257 80.4517 55.4675C80.4517 56.3092 81.134 56.9916 81.9758 56.9916Z" fill="#E9EDF5"/>
</svg>
