<svg width="119" height="114" viewBox="0 0 119 114" fill="none" xmlns="http://www.w3.org/2000/svg">
<path d="M0 10C0 4.47716 4.47715 0 10 0H109C114.523 0 119 4.47715 119 10V114H0V10Z" fill="#49B1F7" fill-opacity="0.1"/>
<path d="M58.4815 85.987L78.854 77.446C84.6456 71.8743 88.2504 64.0456 88.2504 55.3743C88.2504 38.4604 74.539 24.749 57.6251 24.749C55.6566 24.749 53.7323 24.937 51.8671 25.2919L30.9431 40.3349C28.4337 44.7774 27 49.908 27 55.3743C27 72.2881 40.7114 85.9995 57.6252 85.9995C57.9118 85.9995 58.197 85.9947 58.4815 85.987Z" fill="#49B1F7"/>
<path d="M65.4683 65.0938C65.3948 65.0302 65.3236 64.9643 65.2532 64.8978C64.0599 64.866 58.4037 64.9192 54.5409 68.5226C52.0626 70.8346 50.7874 74.1372 50.7478 78.3396C53.0026 80.8153 55.6718 83.4193 58.4816 85.9878C66.3852 85.7708 73.5402 82.5591 78.8541 77.4468C73.6478 72.2823 68.3641 67.6006 65.4683 65.0938Z" fill="#FFC7AB"/>
<path d="M50.9334 78.5422C50.9334 64.0831 65.4683 65.0941 65.4683 65.0941C64.0822 63.8941 63.2484 62.1878 63.1207 60.3588C62.3484 49.2975 57.4059 38.6743 57.4059 38.6743L51.8672 25.293C44.7424 26.6486 38.493 30.4718 34.041 35.8402L33.3625 41.2301C37.6413 51.8358 42.5047 63.9797 44.6559 69.6742C45.5919 72.1517 47.902 75.2373 50.9334 78.5422Z" fill="#FFAA7B"/>
<path d="M57.678 72.3019C54.3915 71.177 51.5515 69.1231 49.4653 66.3621C48.9034 65.6186 49.0507 64.5604 49.7943 63.9985C50.5375 63.4366 51.596 63.5839 52.1579 64.3275C53.837 66.5492 56.1237 68.2026 58.7709 69.1087C61.461 70.0295 64.3323 70.1057 67.0745 69.3286C67.9713 69.0751 68.904 69.5957 69.1582 70.4922C69.4122 71.389 68.8912 72.3219 67.9944 72.5759C64.5929 73.5394 61.0264 73.4479 57.678 72.3019Z" fill="#D3DCFB"/>
<path d="M78.8996 50.9997C78.2202 50.9997 77.6134 50.6901 77.2121 50.2042V55.9197C77.2121 58.1917 76.6499 60.451 75.5863 62.4532C75.149 63.2762 75.4618 64.298 76.2849 64.7351C77.1054 65.1712 78.1281 64.8622 78.5667 64.0365C79.8885 61.5485 80.5871 58.7417 80.5871 55.9196V50.2041C80.1859 50.6901 79.5789 50.9997 78.8996 50.9997Z" fill="#D3DCFB"/>
<path d="M50.7881 60.8778L50.5997 60.4033L46.5239 61.9938L46.7218 62.4924C47.3149 63.9861 48.1038 65.3892 49.0662 66.6628C49.4963 67.2321 50.1507 67.5316 50.8132 67.5316C51.2724 67.5316 51.7357 67.3874 52.1303 67.0892C53.0942 66.3608 53.2851 64.9889 52.5567 64.0251C51.8312 63.0651 51.2362 62.0062 50.7881 60.8778Z" fill="#4F71B6"/>
<path d="M65.9107 71.4124C65.6567 70.5156 66.1777 69.5828 67.0745 69.3288C70.71 68.2989 73.8124 65.7931 75.5864 62.4539C76.0236 61.6308 77.0455 61.3179 77.8682 61.7553C78.6914 62.1925 79.0041 63.2141 78.5669 64.0371C76.3637 68.1845 72.5102 71.2968 67.9945 72.5761C67.094 72.8306 66.164 72.3061 65.9107 71.4124Z" fill="#E9EFFF"/>
<path d="M78.8999 45.9589C78.1525 45.9589 77.4217 45.8894 76.7124 45.7578V49.0622C76.7124 50.2703 77.6918 51.2497 78.8999 51.2497C80.108 51.2497 81.0874 50.2703 81.0874 49.0622V45.7578C80.3782 45.8894 79.6472 45.9589 78.8999 45.9589Z" fill="#2A428C"/>
<path d="M51.4512 58.3989C50.0071 54.7409 48.2277 50.2782 46.1351 45.0657C45.8262 45.2581 45.4502 45.3195 45.0881 45.2159C42.8703 44.5812 37.4773 43.8216 34.9502 50.2875C36.8622 55.0522 38.4938 59.1455 39.8258 62.5191C40.2697 63.6431 41.5367 64.1903 42.6558 63.7536L53.0538 59.6959C52.3538 59.5749 51.7301 59.1051 51.4512 58.3989Z" fill="#3C58A0"/>
<path d="M45.0367 45.3964C45.4422 45.5124 45.8606 45.4467 46.206 45.242C44.8805 41.9397 43.4287 38.335 41.8549 34.4387C41.5456 33.6727 41.7136 32.8412 42.2236 32.2637L34.0414 35.8375C32.8807 37.237 31.8432 38.7422 30.9434 40.3353C32.4314 44.0204 33.8027 47.4267 35.0529 50.5427C37.4672 44.0863 42.6794 44.722 45.0367 45.3964Z" fill="#2A428C"/>
<path d="M59.7242 39.8317C59.2599 39.6677 57.8787 39.2333 56.2657 39.2515C53.6588 39.2769 51.7181 40.4779 50.6533 42.7243C50.4917 43.0654 50.1974 43.3128 49.8569 43.4229C52.1112 49.0317 54.1977 54.239 56.1106 59.0302L62.8467 56.4014C63.6989 56.0689 64.1955 55.1765 64.0267 54.2774C62.8573 48.0547 60.8478 42.5965 59.7242 39.8317Z" fill="#4F71B6"/>
<path d="M58.9025 37.91L54.9641 28.395C54.5565 27.4102 53.4196 26.9518 52.4429 27.3784L44.7493 30.7389C46.563 35.235 48.2894 39.5224 49.9271 43.5977C50.3118 43.4694 50.6411 43.1873 50.8226 42.8044C53.3465 37.4798 59.8193 40.0667 59.8193 40.0667C59.2681 38.6962 58.9025 37.91 58.9025 37.91Z" fill="#3C58A0"/>
<path d="M49.2499 43.4699C48.455 43.3378 47.3449 43.4341 46.568 44.6385C46.4163 44.8739 46.206 45.049 45.9685 45.1538C48.0585 50.36 49.8353 54.8161 51.2769 58.4676C51.7415 59.6445 53.068 60.2173 54.2398 59.7601L56.327 58.9456C54.4131 54.1524 52.3258 48.943 50.071 43.333C49.8234 43.4643 49.536 43.517 49.2499 43.4699Z" fill="#6289CC"/>
<path d="M44.9618 30.6465L42.8877 31.5525C41.7515 32.0489 41.2166 33.3592 41.6808 34.5089C43.2572 38.4115 44.711 42.0211 46.0378 45.327C46.3125 45.207 46.554 45.0062 46.7255 44.7404C47.4362 43.6385 48.4453 43.527 49.2192 43.6551C49.5418 43.7085 49.863 43.6507 50.1408 43.5077C48.5026 39.4314 46.7757 35.1431 44.9618 30.6465Z" fill="#4F71B6"/>
<path d="M78.8996 22C78.7968 22 78.6943 22.0014 78.592 22.0039C78.2569 22.2901 77.6228 22.9405 77.6199 23.7665C77.6176 24.4002 77.985 24.9916 78.7121 25.525V28.7724C78.4703 28.9924 77.6854 29.7849 77.694 30.8026C77.6998 31.4871 78.0613 32.1204 78.7685 32.6854L80.7786 35.0627C80.5481 35.5241 79.7948 37.2463 80.4676 38.8716C80.9389 40.0098 82.0025 40.8365 83.6311 41.3306C83.5236 41.7129 83.3573 42.5837 83.8064 43.2841C84.1378 43.8006 84.7285 44.1084 85.5625 44.202C88.8384 42.0366 91 38.3213 91 34.1004C91 27.4175 85.5825 22 78.8996 22V22Z" fill="#E9EFFF"/>
<path d="M78.8997 22C72.2168 22 66.7993 27.4175 66.7993 34.1004C66.7993 40.7833 72.2168 46.2008 78.8997 46.2008C81.4678 46.2008 83.8486 45.4 85.8074 44.0356C82.8472 43.8523 83.8683 41.2045 83.8683 41.2045C78.4001 39.6694 81.0033 35.0379 81.0033 35.0379L78.8998 32.5501C76.6088 30.7356 78.8998 28.8574 78.8998 28.8574V25.4289C76.4418 23.7014 78.8997 22 78.8997 22V22Z" fill="#D3DCFB"/>
<path d="M78.712 28.7724C78.4702 28.9924 77.6853 29.7849 77.6939 30.8026C77.6997 31.4871 78.0612 32.1204 78.7684 32.6854L80.7785 35.0627C80.548 35.5241 79.7947 37.2462 80.4675 38.8716C80.9388 40.0097 82.0024 40.8365 83.631 41.3306C83.6277 41.3427 83.624 41.3569 83.6205 41.37C85.9969 39.8215 87.5723 37.1424 87.5723 34.1006C87.5723 34.0167 87.5683 33.9339 87.5659 33.8506H84.872C84.4848 33.8506 84.151 33.5665 84.1019 33.1824C83.7614 30.5214 81.434 28.5165 78.712 28.6106V28.7724Z" fill="#3C58A0"/>
<path d="M83.8661 41.2038C78.4008 39.668 81.0032 35.0379 81.0032 35.0379L78.8997 32.5502C76.6087 30.7357 78.8997 28.8574 78.8997 28.8574V28.6074C78.7733 28.6073 78.6464 28.6102 78.5183 28.6193C76.0232 28.7967 74.0097 30.7513 73.6981 33.1823C73.6488 33.5664 73.3152 33.8504 72.9279 33.8504H70.2334C70.2311 33.9337 70.2271 34.0165 70.2271 34.1004C70.2271 38.8825 74.1174 42.773 78.8996 42.773C80.7459 42.773 82.4581 42.1912 83.8661 41.2038Z" fill="#2A428C"/>
<path d="M82.6055 30.3943L85.0254 27.9745C83.5449 26.4948 81.5374 25.5436 79.3227 25.4378C79.1809 25.4311 79.04 25.4287 78.8997 25.4287V28.8573C80.3455 28.8573 81.6559 29.4448 82.6055 30.3943Z" fill="#FFDD40"/>
<path d="M75.1958 30.3968L72.7717 27.9727C70.0187 30.7257 70.2373 34.0514 70.227 34.1004H72.9278C73.3151 34.1004 73.6487 33.8164 73.698 33.4323C73.849 32.2537 74.3942 31.199 75.1958 30.3968Z" fill="#73C3F9"/>
<path d="M78.5183 28.8691C78.6465 28.86 78.7733 28.8572 78.8997 28.8572V25.4287C76.5087 25.4288 74.3423 26.4022 72.772 27.9726L75.1961 30.3967C76.0622 29.5298 77.2272 28.9608 78.5183 28.8691Z" fill="#B4D667"/>
<path d="M85.0256 27.9746L82.6057 30.3945C83.4067 31.1955 83.9513 32.253 84.1022 33.432C84.1513 33.8161 84.485 34.1002 84.8723 34.1002H87.5707C87.5708 31.7122 86.6067 29.5547 85.0256 27.9746Z" fill="#FF7186"/>
<path d="M82.6053 35.0381H79.752C79.2342 35.0381 78.8145 34.6185 78.8145 34.1006C78.8145 33.5827 79.2342 33.1631 79.752 33.1631H82.6053C83.1231 33.1631 83.5428 33.5827 83.5428 34.1006C83.5428 34.6183 83.1231 35.0381 82.6053 35.0381Z" fill="#D3DCFB"/>
<path d="M79.8032 39.7676H77.9961C77.4783 39.7676 77.0586 39.348 77.0586 38.8301C77.0586 38.3122 77.4783 37.8926 77.9961 37.8926H79.8032C80.321 37.8926 80.7407 38.3122 80.7407 38.8301C80.7407 39.3478 80.321 39.7676 79.8032 39.7676Z" fill="#4F71B6"/>
<path d="M80.35 34.6916C80.6779 33.9005 80.3024 32.9933 79.5113 32.6654C78.7202 32.3375 77.813 32.713 77.4851 33.5041C77.1572 34.2952 77.5327 35.2024 78.3238 35.5303C79.1149 35.8582 80.022 35.4827 80.35 34.6916Z" fill="#E9EFFF"/>
<path d="M87.5891 49.0225C85.8954 49.5963 84.3346 50.7696 84.3346 53.1472C84.3346 58.3441 84.2043 64.6735 81.2416 67.6362C79.2616 69.6162 79.7028 72.3173 81.7483 74.24C85.8209 69.0402 88.2506 62.4921 88.2506 55.3751C88.2506 53.1967 88.0214 51.0721 87.5891 49.0225Z" fill="#73C3F9"/>
<path d="M43.2792 82.4371C46.0296 76.1359 35.7207 63.1476 32.6191 56.5223C31.1747 53.437 29.2684 51.5326 27.4094 50.3584C27.1401 51.9908 27 53.6666 27 55.3753C27 67.105 33.5955 77.2929 43.2792 82.4371Z" fill="#73C3F9"/>
</svg>
