<svg width="118" height="114" viewBox="0 0 118 114" fill="none" xmlns="http://www.w3.org/2000/svg">
<path d="M0 10C0 4.47716 4.47715 0 10 0H108C113.523 0 118 4.47715 118 10V114H0V10Z" fill="#556080" fill-opacity="0.1"/>
<path d="M26 55.0004C26 37.3256 40.3271 23 57.9996 23C75.673 23 90 37.3256 90 55.0004C90 72.6722 75.673 86.9992 57.9996 86.9992C40.3271 86.9992 26 72.6722 26 55.0004Z" fill="#EA4949"/>
<path d="M67.647 61.5894C67.647 62.5037 66.8791 63.2448 65.932 63.2448H63.3595C62.4123 63.2448 61.6443 62.5037 61.6443 61.5894V49.037C61.6443 48.1229 62.4123 47.3818 63.3595 47.3818H65.932C66.8791 47.3818 67.647 48.1229 67.647 49.037C67.647 49.037 66.6468 51.9806 66.6468 55.2445C66.6468 58.508 67.647 61.5894 67.647 61.5894Z" fill="#EFEFE4"/>
<path d="M48.3533 61.5894C48.3533 62.5037 49.1212 63.2448 50.0683 63.2448H52.6409C53.588 63.2448 54.3561 62.5037 54.3561 61.5894V49.037C54.3561 48.1229 53.588 47.3818 52.6409 47.3818H50.0683C49.1212 47.3818 48.3533 48.1229 48.3533 49.037C48.3533 49.037 49.3539 51.9806 49.3539 55.2445C49.3539 58.508 48.3533 61.5894 48.3533 61.5894Z" fill="#EFEFE4"/>
<path d="M68.6666 71.3045C68.6666 74.9557 65.0175 78.2293 57.9999 78.2293C50.9824 78.2293 47.3333 75.0817 47.3333 71.3045C47.3333 67.5273 51.8585 61.2322 51.8585 53.0484C51.8585 48.39 48.5965 44.8647 48.5965 40.0802C48.5965 35.2958 50.5615 31.7705 57.9999 31.7705C65.4383 31.7705 67.4034 35.4217 67.4034 40.0802C67.4034 44.7385 64.141 48.39 64.141 53.0484C64.141 61.1063 68.6666 67.6533 68.6666 71.3045Z" fill="#EFEFE4"/>
<path d="M66.0001 69.3134C66.0001 72.5188 63.263 75.3924 57.9999 75.3924C52.7368 75.3924 49.9998 72.6291 49.9998 69.3134C49.9998 65.9974 53.3938 60.4712 53.3938 53.2868C53.3938 49.1972 50.9471 46.1023 50.9471 41.9023C50.9471 37.7022 52.4211 34.6074 57.9999 34.6074C63.5788 34.6074 65.0527 37.8129 65.0527 41.9023C65.0527 45.9918 62.6059 49.1972 62.6059 53.2868C62.6059 60.3606 66.0001 66.108 66.0001 69.3134Z" fill="#CAE0DF"/>
<path d="M58.1884 67.4239C58.5614 66.8554 58.9614 65.9485 58.6631 65.6503C58.3653 65.3521 57.458 65.7524 56.8896 66.1251C56.751 65.4598 56.3919 64.5352 55.9702 64.5352C55.549 64.5352 55.1897 65.4598 55.0513 66.1251C54.4829 65.7524 53.5757 65.3522 53.2775 65.6504C52.9794 65.9486 53.3795 66.8554 53.7522 67.4239C53.0868 67.5623 52.1621 67.9218 52.1621 68.3434C52.1621 68.7649 53.0867 69.1241 53.7522 69.2626C53.3795 69.8309 52.9793 70.738 53.2775 71.0362C53.5757 71.3344 54.4829 70.934 55.0511 70.5614C55.1897 71.2267 55.549 72.1516 55.9702 72.1516C56.3919 72.1516 56.751 71.2267 56.8896 70.5614C57.458 70.934 58.3652 71.3343 58.6631 71.0362C58.9614 70.738 58.5614 69.8309 58.1884 69.2626C58.8542 69.1241 59.7788 68.7649 59.7788 68.3434C59.7788 67.9218 58.8542 67.5627 58.1884 67.4239Z" fill="#EFEFE4"/>
<path d="M62.2139 61.8033C62.2139 61.5252 61.6044 61.2889 61.1657 61.1977C61.4114 60.8234 61.6753 60.2253 61.4789 60.0288C61.2823 59.8324 60.6841 60.0963 60.3098 60.342C60.2186 59.9036 59.9826 59.2939 59.7045 59.2939C59.4269 59.2939 59.1906 59.9034 59.0992 60.3419C58.7248 60.0963 58.1266 59.8324 57.9303 60.0288C57.7337 60.2253 57.9976 60.8234 58.2431 61.1977C57.8048 61.2889 57.1953 61.5252 57.1953 61.8033C57.1953 62.0812 57.8048 62.3172 58.2431 62.4084C57.9978 62.7829 57.7335 63.3812 57.9303 63.5776C58.1266 63.7741 58.7248 63.5102 59.0992 63.2644C59.1907 63.703 59.427 64.3125 59.7046 64.3125C59.9827 64.3125 60.2187 63.7027 60.3099 63.2644C60.6843 63.5099 61.2824 63.7741 61.479 63.5776C61.6754 63.3812 61.4117 62.7829 61.1661 62.4084C61.6044 62.3172 62.2139 62.0812 62.2139 61.8033Z" fill="#EFEFE4"/>
</svg>
