<svg width="119" height="114" viewBox="0 0 119 114" fill="none" xmlns="http://www.w3.org/2000/svg">
<path d="M0 10C0 4.47716 4.47715 0 10 0H109C114.523 0 119 4.47715 119 10V114H0V10Z" fill="#EAFBFB"/>
<g clip-path="url(#clip0)">
<path d="M92 59C92 76.6731 77.6731 91 60 91C42.3269 91 28 76.6731 28 59C28 51.7319 30.4231 45.0296 34.5055 39.6573C34.797 39.2736 36.1912 39.478 36.4995 39.1082C38.5988 36.5891 41.0776 34.3976 43.8484 32.6215C44.3025 32.3304 43.6701 31.4692 44.1395 31.2009C48.8146 28.5277 54.2289 27 60 27C68.5752 27 76.3628 30.3731 82.108 35.8647C82.4575 36.1987 82.0494 37.6173 82.3834 37.9666C84.5442 40.2269 86.3773 42.8034 87.8058 45.6196C88.1416 46.2816 89.2051 45.8804 89.4953 46.5679C91.1082 50.39 92 54.5909 92 59Z" fill="#168C80"/>
<path d="M88.0065 56.8754C88.0065 70.9555 76.5922 82.3699 62.512 82.3699C48.4317 82.3699 37.0176 70.9555 37.0176 56.8754C37.0176 42.7952 48.4318 31.3809 62.512 31.3809C76.5921 31.3809 88.0065 42.7951 88.0065 56.8754Z" fill="#199A8E"/>
<path d="M56.2415 61.7316L82.1078 35.8652C85.2491 38.8679 87.7798 42.504 89.4951 46.5684L65.2866 70.7769L56.2415 61.7316Z" fill="#E09380"/>
<path d="M81.711 54.352L69.9395 66.1235C68.724 67.339 67.7083 68.7393 66.9302 70.2722L61.0436 81.7708L56.8658 89.8829C56.3807 90.825 55.2392 91.2628 54.2753 90.8224C53.2462 90.3523 52.8291 89.1245 53.3412 88.1302L57.9696 79.143C58.06 78.9675 58.0266 78.7537 57.887 78.614C57.6982 78.4253 57.3881 78.4393 57.2172 78.6443L48.849 88.6802C48.1703 89.494 46.961 89.6728 46.1161 89.0333C45.214 88.3504 45.0741 87.0613 45.7903 86.2023L54.382 75.8987C54.5853 75.6548 54.5691 75.2962 54.3446 75.0717C54.105 74.832 53.7163 74.832 53.4767 75.0717L42.8175 85.731C42.0682 86.4803 40.8476 86.5493 40.0638 85.836C39.2271 85.0745 39.2042 83.778 39.995 82.9873L50.7108 72.2714C50.941 72.0413 50.941 71.6683 50.7108 71.4382C50.4967 71.224 50.1553 71.207 49.9211 71.3988L39.5001 79.9273C38.659 80.6157 37.4191 80.4918 36.7307 79.6508C36.0423 78.8097 36.1662 77.5698 37.0072 76.8814L46.8013 68.8659C47.1951 68.5437 47.2246 67.952 46.8648 67.5923C46.6497 67.3772 46.3368 67.2917 46.0421 67.3675L40.9986 68.6672C39.9725 68.9315 38.8862 68.3705 38.5738 67.3579C38.2403 66.2768 38.8796 65.1487 39.9626 64.8697L54.6505 61.0848L56.6415 60.1042C58.2425 59.3155 59.7032 58.2694 60.9651 57.0074L72.6655 45.3069C75.1632 42.8092 79.2128 42.8092 81.7107 45.3069C84.2086 47.8047 84.2086 51.8543 81.711 54.352Z" fill="#FAA68E"/>
<path d="M50.3891 71.0159L39.4998 79.9276C38.6587 80.616 37.4188 80.4921 36.7305 79.6511L49.1426 69.493C49.5632 69.1487 50.1831 69.2107 50.5273 69.6312C50.8716 70.0517 50.8096 70.6717 50.3891 71.0159ZM52.7276 74.4295C52.3433 74.0452 51.7203 74.0452 51.336 74.4295L39.9947 85.7707C40.7632 86.5392 42.0093 86.5392 42.7778 85.7707L52.7276 75.821C53.1118 75.4367 53.1118 74.8137 52.7276 74.4295ZM40.8197 68.7092L49.0726 66.5826C49.5988 66.447 49.9155 65.9105 49.78 65.3842C49.6443 64.858 49.1078 64.5413 48.5816 64.6769L38.5468 67.2626C38.5471 67.2639 38.5475 67.2652 38.5478 67.2666C38.8083 68.2775 39.8086 68.9017 40.8197 68.7092ZM61.4668 78.8811C60.9837 78.6324 60.3903 78.8222 60.1416 79.3054L54.2228 90.798C55.183 91.2702 56.3483 90.888 56.8402 89.9329L61.9811 79.9506C62.0662 79.53 61.8672 79.0872 61.4668 78.8811ZM57.6988 76.5306C57.2815 76.1826 56.661 76.2389 56.313 76.6562L46.0413 88.9746C46.8761 89.6706 48.1171 89.5582 48.8131 88.7235L57.8243 77.9165C58.1725 77.4991 58.1162 76.8786 57.6988 76.5306Z" fill="#FFBEAA"/>
<path d="M75.408 60.6556L70.8569 65.2067C68.3592 67.7045 64.3095 67.7045 61.8118 65.2067C59.314 62.709 59.314 58.6594 61.8118 56.1616L66.3628 51.6106C68.8605 49.1129 72.9102 49.1129 75.4079 51.6106C77.9058 54.1081 77.9058 58.1579 75.408 60.6556Z" fill="#FA9084"/>
<path d="M61.625 69.6253C61.625 70.1086 61.2333 70.5003 60.75 70.5003C60.2668 70.5003 59.875 70.1086 59.875 69.6253C59.875 69.1421 60.2668 68.7503 60.75 68.7503C61.2333 68.7503 61.625 69.1421 61.625 69.6253ZM75.75 47.5439C75.75 48.0272 75.3582 48.4189 74.875 48.4189C74.3918 48.4189 74 48.0272 74 47.5439C74 47.0607 74.3918 46.6689 74.875 46.6689C75.3582 46.6689 75.75 47.0607 75.75 47.5439Z" fill="#F87B67"/>
<path d="M71.25 62.1875C71.25 63.0505 70.5505 63.75 69.6875 63.75C68.8245 63.75 68.125 63.0505 68.125 62.1875C68.125 61.3245 68.8245 60.625 69.6875 60.625C70.5505 60.625 71.25 61.3245 71.25 62.1875ZM74.875 56.875C74.3917 56.875 74 57.2667 74 57.75C74 58.2333 74.3917 58.625 74.875 58.625C75.3583 58.625 75.75 58.2333 75.75 57.75C75.75 57.2667 75.3583 56.875 74.875 56.875ZM72.75 51.625C72.2667 51.625 71.875 52.0168 71.875 52.5C71.875 52.9833 72.2667 53.375 72.75 53.375C73.2333 53.375 73.625 52.9833 73.625 52.5C73.625 52.0168 73.2333 51.625 72.75 51.625Z" fill="#D63030"/>
<path d="M66.375 67.25C66.375 67.7332 65.9833 68.125 65.5 68.125C65.0168 68.125 64.625 67.7332 64.625 67.25C64.625 66.7668 65.0168 66.375 65.5 66.375C65.9833 66.375 66.375 66.7668 66.375 67.25ZM66.25 56.875C65.7667 56.875 65.375 57.2667 65.375 57.75C65.375 58.2333 65.7667 58.625 66.25 58.625C66.7333 58.625 67.125 58.2333 67.125 57.75C67.125 57.2667 66.7333 56.875 66.25 56.875ZM63.3125 62.375C62.4495 62.375 61.75 63.0745 61.75 63.9375C61.75 64.8005 62.4495 65.5 63.3125 65.5C64.1755 65.5 64.875 64.8005 64.875 63.9375C64.875 63.0745 64.1755 62.375 63.3125 62.375ZM77.25 52.5C76.7668 52.5 76.375 52.8918 76.375 53.375C76.375 53.8583 76.7668 54.25 77.25 54.25C77.7332 54.25 78.125 53.8583 78.125 53.375C78.125 52.8918 77.7332 52.5 77.25 52.5ZM70.6875 56.375C69.8245 56.375 69.125 57.0745 69.125 57.9375C69.125 58.8005 69.8245 59.5 70.6875 59.5C71.5505 59.5 72.25 58.8005 72.25 57.9375C72.25 57.0745 71.5505 56.375 70.6875 56.375Z" fill="#E5554E"/>
<path d="M52.3124 39.3729L43.2671 48.4181L34.5056 39.6566C37.1085 36.2313 40.3857 33.3466 44.1396 31.2002L52.3124 39.3729Z" fill="#FFBEAA"/>
<path d="M71.8232 57.2929C71.1348 58.134 69.8949 58.2578 69.0538 57.5695L58.6328 49.041C58.3985 48.8493 58.057 48.8663 57.843 49.0804C57.6129 49.3105 57.6129 49.6835 57.843 49.9136L68.5589 60.6295C69.3274 61.398 69.3274 62.6441 68.5589 63.4126C67.7904 64.1811 66.5443 64.1811 65.7758 63.4126L55.0772 52.714C54.8375 52.4744 54.4489 52.4744 54.2093 52.714C53.9848 52.9385 53.9685 53.2971 54.1719 53.541L62.7635 63.8446C63.4595 64.6794 63.3472 65.9204 62.5124 66.6164C61.6777 67.3125 60.4367 67.2 59.7407 66.3653L51.3368 56.2868C51.1658 56.0818 50.8558 56.0678 50.6669 56.2565C50.5273 56.3961 50.4939 56.61 50.5843 56.7855L55.2127 65.7726C55.7103 66.7389 55.3304 67.9256 54.3642 68.4233C53.3979 68.9209 52.2112 68.541 51.7135 67.5748L47.5103 59.4131L40.4493 45.6006L40.4494 45.6005C37.9608 43.102 37.9638 39.0593 40.4585 36.5646C42.9532 34.07 46.996 34.067 49.4945 36.5555C52.4259 37.9994 55.498 39.1379 58.6624 39.9534L68.5913 42.5119C69.6438 42.7831 70.2772 43.8561 70.0059 44.9086C69.7347 45.9611 68.6617 46.5945 67.6092 46.3233L62.5118 45.0098C62.2172 44.9339 61.9043 45.0193 61.689 45.2344C61.3293 45.5941 61.3588 46.1859 61.7524 46.508L71.5465 54.5236C72.3877 55.2119 72.5115 56.4518 71.8232 57.2929Z" fill="#FFCDBE"/>
<path d="M57.2174 52.0721L68.5586 63.4133C67.7901 64.1818 66.544 64.1818 65.7755 63.4133L55.8258 53.4636C55.4415 53.0793 55.4415 52.4563 55.8258 52.072C56.21 51.6876 56.8331 51.6878 57.2174 52.0721ZM50.8545 54.1732C50.4371 54.5212 50.3809 55.1417 50.729 55.5591L59.7403 66.3661C60.4363 67.2008 61.6773 67.3132 62.512 66.6172L52.2404 54.2988C51.8924 53.8815 51.272 53.8252 50.8545 54.1732ZM59.4108 47.1356C58.9903 46.7915 58.3703 46.8533 58.0261 47.2738C57.6819 47.6945 57.7439 48.3143 58.1644 48.6585L69.0535 57.5702C69.8946 58.2586 71.1345 58.1347 71.8229 57.2936L59.4108 47.1356ZM59.4808 44.2252L67.7336 46.3518C68.7449 46.5443 69.745 45.9201 70.0055 44.9092C70.0059 44.908 70.0061 44.9066 70.0065 44.9052L59.9719 42.3195C59.4456 42.1838 58.9091 42.5005 58.7735 43.0268C58.6379 43.5532 58.9545 44.0897 59.4808 44.2252ZM47.0866 56.5237C46.6863 56.73 46.4873 57.1726 46.5724 57.5932L51.7133 67.5754C52.2053 68.5307 53.3706 68.9128 54.3306 68.4406L48.4119 56.948C48.163 56.465 47.5698 56.275 47.0866 56.5237Z" fill="#FFBEAA"/>
<path d="M39.3427 77.4584C39.6705 77.8591 39.6115 78.4498 39.2109 78.7776L38.7273 79.1735C38.3265 79.5014 37.7359 79.4424 37.408 79.0418C37.0802 78.641 37.1392 78.0504 37.5398 77.7225L38.0234 77.3266C38.424 76.9986 39.0147 77.0576 39.3427 77.4584ZM41.2868 67.5799C41.7882 67.4506 42.0899 66.9395 41.9607 66.4381C41.8315 65.9368 41.3203 65.635 40.8189 65.7643L40.2137 65.9203C39.7123 66.0494 39.4105 66.5606 39.5398 67.062C39.6689 67.5634 40.1802 67.8651 40.6815 67.7359L41.2868 67.5799ZM41.1833 83.2411L40.7414 83.683C40.3753 84.0491 40.3753 84.6428 40.7414 85.0089C41.1075 85.375 41.7012 85.375 42.0673 85.0089L42.5092 84.567C42.8753 84.2009 42.8753 83.6073 42.5092 83.2411C42.143 82.875 41.5494 82.875 41.1833 83.2411ZM48.3458 86.3294C47.9644 85.9791 47.3714 86.0044 47.0212 86.3858L46.5984 86.8461C46.2482 87.2275 46.2734 87.8205 46.6548 88.1708C47.0362 88.521 47.6292 88.4958 47.9794 88.1144L48.4022 87.654C48.7524 87.2726 48.7272 86.6795 48.3458 86.3294ZM55.8227 87.7638C55.3623 87.5266 54.797 87.7076 54.5599 88.168L54.2738 88.7236C54.0367 89.184 54.2177 89.7493 54.678 89.9864C55.1384 90.2234 55.7037 90.0425 55.9408 89.5821L56.2269 89.0265C56.4639 88.5661 56.2829 88.0008 55.8227 87.7638Z" fill="#FFCDBE"/>
<path d="M54.218 66.177C54.4769 66.6254 54.3233 67.1988 53.8749 67.4577C53.4265 67.7165 52.8531 67.5629 52.5943 67.1145L52.2818 66.5733C52.0229 66.1249 52.1765 65.5515 52.6249 65.2927C53.0733 65.0338 53.6466 65.1874 53.9055 65.6358L54.218 66.177ZM61.5198 63.9098C61.1881 63.5122 60.597 63.4585 60.1994 63.7902C59.8018 64.1218 59.7481 64.7129 60.0798 65.1105L60.48 65.5905C60.8116 65.9882 61.4028 66.0418 61.8004 65.7102C62.198 65.3785 62.2516 64.7874 61.92 64.3898L61.5198 63.9098ZM67.6813 61.217L67.2251 60.7898C66.8473 60.4359 66.2539 60.4553 65.9 60.8333C65.5461 61.2112 65.5655 61.8045 65.9435 62.1584L66.3996 62.5857C66.7775 62.9395 67.3709 62.9202 67.7248 62.5422C68.0786 62.1642 68.0593 61.5709 67.6813 61.217ZM71.1188 55.5295L70.6626 55.1023C70.2848 54.7484 69.6914 54.7678 69.3375 55.1458C68.9836 55.5237 69.003 56.117 69.381 56.4709L69.8371 56.8982C70.215 57.252 70.8084 57.2327 71.1623 56.8547C71.5161 56.4767 71.4968 55.8834 71.1188 55.5295ZM68.0364 43.4203L67.4311 43.2643C66.9298 43.135 66.4185 43.4368 66.2894 43.9382C66.1601 44.4395 66.4619 44.9508 66.9633 45.0799L67.5685 45.2359C68.0699 45.3652 68.5811 45.0634 68.7103 44.562C68.8395 44.0607 68.5378 43.5495 68.0364 43.4203Z" fill="#FAA68E"/>
</g>
<defs>
<clipPath id="clip0">
<rect width="64" height="64" fill="white" transform="translate(28 27)"/>
</clipPath>
</defs>
</svg>
