<svg width="119" height="114" viewBox="0 0 119 114" fill="none" xmlns="http://www.w3.org/2000/svg">
<path d="M0 10C0 4.47716 4.47715 0 10 0H109C114.523 0 119 4.47715 119 10V114H0V10Z" fill="#47354F" fill-opacity="0.1"/>
<path d="M32.6963 74.0648L39.2526 81.7805C40.5461 82.873 41.9313 83.86 43.3951 84.7286L56.7966 88.9199C57.5245 88.9716 58.259 88.9995 59 88.9995C59.741 88.9995 60.4755 88.9716 61.2034 88.9199L74.6049 84.7286C76.0688 83.86 77.4539 82.873 78.7474 81.7805L85.3038 74.0648C88.0471 69.4756 89.6253 64.1096 89.6253 58.3743C89.6253 41.4604 75.9139 27.749 59 27.749C42.0861 27.749 28.3748 41.4604 28.3748 58.3743C28.3748 64.1095 29.9529 69.4756 32.6963 74.0648Z" fill="#47354F"/>
<path d="M84.8361 72.1102C84.6885 71.5483 84.6701 70.9604 84.7872 70.3913C85.8378 65.2852 84.5101 61.2737 84.2655 55.9199C84.2145 54.8048 84.0513 53.6978 83.756 52.6213C83.7605 52.6379 80.4261 36.9747 78.3141 32.6694C76.2273 28.4156 70.8097 29.7801 67.9202 29.0176C67.7153 28.9634 67.5211 28.9041 67.3351 28.8408C65.8497 28.9007 61.9311 29.2722 59.6812 31.4864C58.6127 32.5379 58.071 33.8702 58.071 35.4463L58.0715 47.6008C58.0656 47.6917 57.9448 49.8348 59.5102 50.7403C60.485 51.3039 59.2912 55.1331 58.3097 57.4142L58.259 57.5319L59.9412 59.1858L58.8287 65.2287C58.6528 65.3692 58.1816 65.8006 58.1561 66.4038C58.1365 66.8667 58.3803 67.3109 58.8806 67.7241C59.1801 67.9713 59.344 68.3246 59.4192 68.7243C65.1107 68.7494 70.005 69.2774 72.0416 69.5319C72.2042 69.5523 72.3562 69.6074 72.4921 69.6876C72.4162 69.4277 72.3372 69.1719 72.2546 68.9209C70.2547 62.8416 71.6033 51.9514 72.412 46.8392C72.5178 46.1698 73.4543 46.1073 73.6501 46.7562C74.456 49.4293 75.5012 52.3491 77.398 55.6471C77.5733 55.9519 77.693 56.2853 77.7498 56.6324C77.8647 57.3334 77.9333 58.0421 77.954 58.7543C78.0146 60.8458 78.3408 64.7287 79.6223 70.8368C79.6223 70.8368 79.9763 71.6382 78.386 73.1492C77.8991 73.6117 76.8712 74.4734 75.679 75.4467C74.5313 76.3836 75.5655 78.2086 76.9582 77.7038L77.4066 77.5413C77.8482 77.3813 78.1966 77.6381 78.1818 77.9932C78.1397 79.0077 78.1502 80.7886 78.6632 81.6473C78.6903 81.6928 78.7186 81.7376 78.7475 81.7819C81.3357 79.5961 83.5565 76.9892 85.3038 74.0662C85.1433 73.3162 84.9708 72.6229 84.8361 72.1102Z" fill="#FFC7AB"/>
<path d="M64.0133 25.6061C63.9238 25.2535 63.6167 25 63.2528 25H59.0002H54.7475C54.3837 25 54.0765 25.2535 53.9872 25.6061C53.7027 26.7272 52.9765 27.6988 51.953 28.2714C51.4463 28.555 50.8273 28.8194 50.0798 29.0166C47.1903 29.7791 41.7727 28.4146 39.6859 32.6685C37.5738 36.9739 34.2394 52.6371 34.2439 52.6205C33.9485 53.697 33.7854 54.8041 33.7344 55.9191C33.4898 61.2729 32.162 65.2845 33.2127 70.3905C33.3298 70.9595 33.3114 71.5475 33.1638 72.1094C33.029 72.6222 32.8565 73.3155 32.6963 74.0651C34.4437 76.9883 36.6644 79.595 39.2527 81.7809C39.2814 81.7365 39.3097 81.6916 39.3369 81.6463C39.8499 80.7875 39.8604 79.0066 39.8183 77.9921C39.8035 77.637 40.152 77.3802 40.5937 77.5402L41.042 77.7028C42.4349 78.2075 43.4689 76.3825 42.3213 75.4456C41.129 74.4724 40.1012 73.6107 39.6143 73.1481C38.0239 71.637 38.3779 70.8358 38.3779 70.8358C39.6593 64.7276 39.9857 60.8447 40.0463 58.7533C40.0669 58.041 40.1354 57.3324 40.2504 56.6314C40.3073 56.2843 40.427 55.9509 40.6023 55.646C42.499 52.3479 43.5443 49.4282 44.3502 46.7551C44.5458 46.1063 45.4824 46.1689 45.5882 46.8381C46.3968 51.9504 47.7453 62.8405 45.7455 68.9199C45.663 69.171 45.5839 69.4268 45.5082 69.6865C45.644 69.6064 45.796 69.5511 45.9587 69.5309C48.0452 69.2701 53.1304 68.7221 59.0003 68.7221C59.2039 68.7221 59.4063 68.723 59.6079 68.7243C59.5288 68.2703 59.346 67.8639 59.0003 67.5784C57.5212 66.3574 59.0003 65.3331 59.0003 65.3331L60.1439 59.1209L58.4822 57.4871C58.4822 57.4871 61.087 51.4342 59.6043 50.5767C58.1217 49.7192 58.2588 47.6117 58.2588 47.6117C58.2588 47.6117 58.2588 42.0284 58.2588 35.4451C58.2588 28.8617 67.9205 29.0164 67.9205 29.0164C67.173 28.8191 66.5542 28.5547 66.0473 28.2711C65.0238 27.6988 64.2977 26.7272 64.0133 25.6061Z" fill="#FFAA7B"/>
<path d="M73.4678 71.9777C73.4539 71.9747 73.4401 71.9711 73.4259 71.9693C71.1409 71.6838 65.6041 71.0871 59.1935 71.0752C59.0499 71.5874 58.8945 71.9822 58.8444 72.1046C58.5516 72.3572 56.7216 74.0321 56.6031 76.4904C56.5231 78.1499 57.249 79.7759 58.7564 81.3261C58.8371 81.3147 58.9186 81.3088 59.0001 81.3088C59.6721 81.3089 60.3441 81.6938 60.5538 82.4631C60.5783 82.5531 60.5963 82.6461 60.6071 82.7413L61.2035 88.9197C66.0741 88.5733 70.629 87.0878 74.6051 84.7284C74.5634 80.8087 74.3051 76.0038 73.4678 71.9777Z" fill="#4F71B6"/>
<path d="M58.9999 72.2199C58.9999 72.2199 59.2072 71.7408 59.3889 71.0773C59.2594 71.0768 59.1302 71.0762 59 71.0762C52.5072 71.0762 46.8821 71.6824 44.5741 71.9708C44.5599 71.9725 44.5461 71.9763 44.5323 71.9792C43.6949 76.0053 43.4366 80.8102 43.395 84.7298C47.3711 87.0892 51.926 88.5748 56.7967 88.921L57.393 82.7427C57.4039 82.6474 57.4219 82.5544 57.4464 82.4644C57.656 81.695 58.3279 81.3103 59 81.3102C54.0153 76.3257 58.9999 72.2199 58.9999 72.2199Z" fill="#3C58A0"/>
<path d="M73.0225 70.1204C72.8973 69.6665 72.5085 69.3349 72.0413 69.2765C69.9973 69.0211 65.075 68.4903 59.3572 68.4688C59.6283 69.3444 59.3617 70.5423 59.1184 71.3295C65.5609 71.3369 71.1317 71.9373 73.4255 72.2238C73.4584 72.2279 73.4897 72.2366 73.5218 72.2431C73.3748 71.508 73.2093 70.7969 73.0225 70.1204Z" fill="#6289CC"/>
<path d="M59.5514 68.4694C59.3684 68.4683 59.1845 68.4678 58.9998 68.4678C53.13 68.4678 48.0448 69.0159 45.9582 69.2765C45.4909 69.3349 45.1022 69.6665 44.9769 70.1204C44.7902 70.7969 44.6247 71.508 44.4775 72.2431C44.5097 72.2366 44.5409 72.2279 44.5738 72.2238C46.8818 71.9355 52.5068 71.3291 58.9997 71.3291C59.1053 71.3291 59.2099 71.3298 59.315 71.33C59.5549 70.5386 59.8037 69.3703 59.5514 68.4694Z" fill="#4F71B6"/>
<path d="M62.4416 56.7637H60.1456C60.004 56.7637 59.8761 56.7188 59.772 56.6445C59.3929 56.7415 58.8045 56.9694 58.4821 57.4869C58.2085 57.9263 58.1871 58.4763 58.4135 59.1207H58.6107C59.0139 59.1207 59.3185 59.4859 59.246 59.8825L58.3811 64.6177C58.2544 65.3115 59.2161 65.6239 59.5212 64.9879L63.0237 57.6889C63.2296 57.2602 62.9171 56.7637 62.4416 56.7637Z" fill="#FF7186"/>
<path d="M62.7156 65.4768L67.4897 63.0143C67.7701 62.8697 67.8034 62.4818 67.5517 62.2915L66.3364 61.3729C66.1012 61.1952 66.1115 60.8388 66.3565 60.6749L68.967 58.9284C69.2119 58.7645 69.2221 58.408 68.9871 58.2304L67.1751 56.861C67.0045 56.7322 66.765 56.7487 66.6137 56.8999L63.178 60.3352C62.994 60.5192 63.0151 60.8232 63.2226 60.98L64.581 62.0067C64.7943 62.1679 64.8095 62.4832 64.6125 62.6642L62.2602 64.8247C61.9156 65.1412 62.2996 65.6913 62.7156 65.4768Z" fill="#FF4155"/>
<path d="M56.1669 65.3187L55.2154 60.0319C55.1595 59.7214 54.7985 59.5756 54.5428 59.7603L53.3076 60.6523C53.0688 60.8248 52.731 60.7103 52.6463 60.4281L51.7435 57.4198C51.6588 57.1376 51.3211 57.0231 51.0821 57.1956L49.2409 58.5254C49.0675 58.6506 49.013 58.8844 49.1131 59.0734L51.3876 63.3666C51.5094 63.5965 51.8063 63.6657 52.0171 63.5133L53.3975 62.5163C53.6144 62.3597 53.9201 62.4378 54.0353 62.6793L55.4096 65.5623C55.6111 65.985 56.2498 65.7793 56.1669 65.3187Z" fill="#E80054"/>
<path d="M63.6987 75.8938L63.9838 81.5054C64.007 81.9624 64.2108 82.3914 64.5503 82.698L65.7192 83.7539C66.0587 84.0606 66.5062 84.2199 66.9632 84.1966L68.6223 84.1124C69.0793 84.0891 69.5083 83.8854 69.8149 83.5459L70.8708 82.3769C71.1774 82.0374 71.3368 81.5899 71.3135 81.1329L71.0284 75.5213C71.009 75.14 70.6843 74.8468 70.3032 74.8661L64.3538 75.1684C63.9727 75.1878 63.6793 75.5125 63.6987 75.8938Z" fill="#6289CC"/>
<path d="M54.3018 75.8938L54.0167 81.5054C53.9934 81.9624 53.7897 82.3914 53.4502 82.698L52.2813 83.7539C51.9418 84.0606 51.4943 84.2199 51.0374 84.1966L49.3783 84.1124C48.9213 84.0891 48.4923 83.8854 48.1857 83.5459L47.1298 82.3769C46.823 82.0374 46.6638 81.5899 46.687 81.1329L46.9722 75.5213C46.9915 75.14 47.3163 74.8468 47.6974 74.8661L53.6468 75.1684C54.0278 75.1878 54.3212 75.5125 54.3018 75.8938Z" fill="#4F71B6"/>
<path d="M59 72.2188C58.3683 72.2188 57.8562 71.7068 57.8562 71.075V68.7219C57.8562 68.0903 58.3682 67.5781 59 67.5781C59.6316 67.5781 60.1437 68.0901 60.1437 68.7219V71.075C60.1437 71.7068 59.6316 72.2188 59 72.2188Z" fill="#79A4E2"/>
<path d="M69.8654 72.9852C69.2338 72.9852 68.7217 72.4732 68.7217 71.8414V69.0314C68.7217 68.3998 69.2337 67.8877 69.8654 67.8877C70.4971 67.8877 71.0092 68.3997 71.0092 69.0314V71.8414C71.0092 72.4731 70.4971 72.9852 69.8654 72.9852Z" fill="#79A4E2"/>
<path d="M48.1345 72.9852C47.5028 72.9852 46.9907 72.4732 46.9907 71.8414V69.0314C46.9907 68.3998 47.5027 67.8877 48.1345 67.8877C48.7661 67.8877 49.2782 68.3997 49.2782 69.0314V71.8414C49.2782 72.4731 48.7662 72.9852 48.1345 72.9852Z" fill="#6289CC"/>
<path d="M59.5352 55.9068L61.0867 51.4346C61.2323 51.015 60.9207 50.5771 60.4766 50.5771H57.0536C56.7313 50.5771 56.4583 50.8148 56.414 51.134L55.4047 58.3864C55.3507 58.7748 55.6523 59.1213 56.0443 59.1213H58.6106C57.815 56.9949 60.1453 56.7643 60.1453 56.7643C59.7012 56.7643 59.3897 56.3264 59.5352 55.9068Z" fill="#FF4155"/>
</svg>
