<svg width="118" height="114" viewBox="0 0 118 114" fill="none" xmlns="http://www.w3.org/2000/svg">
<path d="M0 10C0 4.47716 4.47715 0 10 0H108C113.523 0 118 4.47715 118 10V114H0V10Z" fill="#0BC3F4" fill-opacity="0.1"/>
<path d="M59 87C76.6731 87 91 72.6731 91 55C91 37.3269 76.6731 23 59 23C41.3269 23 27 37.3269 27 55C27 72.6731 41.3269 87 59 87Z" fill="#0BC3F4"/>
<path d="M48.7497 37.1875H46.2497C46.3143 39.095 46.139 41.0031 45.7278 42.8669C45.1813 45.5506 45.8331 47.4712 46.8478 48.8203L48.6025 46.9413C48.1141 46.0756 47.8625 44.9131 48.1778 43.3656C48.6239 41.3379 48.816 39.2626 48.7497 37.1875Z" fill="#CE344E"/>
<path d="M71.1517 48.8203C72.1664 47.4712 72.8183 45.5506 72.2717 42.8669C71.8605 41.0031 71.6852 39.095 71.7498 37.1875H69.2498C69.1835 39.2626 69.3756 41.3379 69.8217 43.3656C70.137 44.9131 69.8842 46.0756 69.397 46.9413L71.1517 48.8203Z" fill="#CE344E"/>
<path d="M55.8565 68.8318C56.072 70.1478 56.1775 71.4795 56.1718 72.813H61.828C61.8223 71.4795 61.9278 70.1478 62.1433 68.8318C62.2768 68.0241 62.5853 67.2554 63.0472 66.5795C63.5091 65.9036 64.1133 65.337 64.8174 64.9193C68.4737 62.763 72.4983 59.1068 72.4983 53.4559C72.4999 46.1659 64.7405 43.9043 58.9999 43.9043C53.2593 43.9043 45.5015 46.1659 45.5015 53.4559C45.5015 59.1065 49.5277 62.7637 53.1824 64.9193C53.8865 65.337 54.4907 65.9036 54.9526 66.5795C55.4145 67.2554 55.723 68.0241 55.8565 68.8318Z" fill="#EC5569"/>
<path d="M57.6268 67.6924C57.8387 69.391 57.9431 71.1013 57.9393 72.813H60.0593C60.0553 71.1013 60.1597 69.391 60.3718 67.6924C60.5095 66.6176 60.8871 65.5875 61.4768 64.6783C62.0664 63.7691 62.8528 63.0041 63.778 62.4399C66.7577 60.614 69.8405 57.6993 69.8405 53.4559C69.8437 46.754 60.1096 46.5605 58.9999 46.5605C57.8902 46.5605 48.1577 46.754 48.1577 53.4559C48.1577 57.6993 51.2412 60.614 54.2202 62.4399C55.1455 63.0041 55.932 63.769 56.5217 64.6782C57.1113 65.5874 57.489 66.6175 57.6268 67.6924Z" fill="#CE344E"/>
<path d="M57.6281 67.6912C57.8393 69.3903 57.9436 71.1009 57.9406 72.8131H60.0594C60.0564 71.1009 60.1607 69.3903 60.3719 67.6912C60.5103 66.6169 60.8883 65.5874 61.4778 64.6787C62.0674 63.7701 62.8535 63.0054 63.7781 62.4412C66.3813 60.8443 69.0656 58.4193 69.7031 55.0068L69.7 55.0006C68.178 54.2761 66.4864 53.9832 64.8094 54.1537C62.5031 54.3974 61.5938 55.7943 59 55.7943C56.4062 55.7943 55.4969 54.3974 53.1906 54.1537C51.5136 53.9832 49.822 54.2761 48.3 55.0006L48.2969 55.0068C48.9344 58.4193 51.6187 60.8443 54.2219 62.4412C55.1465 63.0054 55.9326 63.7701 56.5222 64.6787C57.1117 65.5874 57.4897 66.6169 57.6281 67.6912Z" fill="#FDD843"/>
<path d="M59.6331 60.3675C59.6332 60.2422 59.5962 60.1196 59.5266 60.0154C59.4571 59.9111 59.3582 59.8298 59.2425 59.7818C59.1268 59.7338 58.9994 59.7211 58.8765 59.7455C58.7535 59.7699 58.6406 59.8301 58.552 59.9187C58.4633 60.0073 58.4029 60.1201 58.3784 60.243C58.3539 60.3659 58.3664 60.4933 58.4144 60.6091C58.4623 60.7249 58.5435 60.8238 58.6477 60.8935C58.7518 60.9631 58.8743 61.0003 58.9996 61.0003C59.1675 61.0002 59.3285 60.9335 59.4472 60.8149C59.566 60.6962 59.6328 60.5353 59.6331 60.3675Z" fill="#FABE2C"/>
<path d="M54.5473 58.7591C54.8971 58.7591 55.1807 58.4755 55.1807 58.1256C55.1807 57.7758 54.8971 57.4922 54.5473 57.4922C54.1974 57.4922 53.9138 57.7758 53.9138 58.1256C53.9138 58.4755 54.1974 58.7591 54.5473 58.7591Z" fill="#FABE2C"/>
<path d="M63.4523 58.7591C63.8021 58.7591 64.0857 58.4755 64.0857 58.1256C64.0857 57.7758 63.8021 57.4922 63.4523 57.4922C63.1024 57.4922 62.8188 57.7758 62.8188 58.1256C62.8188 58.4755 63.1024 58.7591 63.4523 58.7591Z" fill="#FABE2C"/>
</svg>
