<svg width="118" height="114" viewBox="0 0 118 114" fill="none" xmlns="http://www.w3.org/2000/svg">
<path d="M0 10C0 4.47716 4.47715 0 10 0H108C113.523 0 118 4.47715 118 10V114H0V10Z" fill="#556080" fill-opacity="0.1"/>
<path d="M58 23C40.3272 23 26 37.3272 26 55C26 60.7148 27.5051 66.0742 30.1291 70.7186C31.3153 68.7203 32.624 67.6168 32.7046 67.5374L54.5396 45.7023C55.131 45.1109 55.4974 44.3363 55.5912 43.5054C55.6088 43.3498 55.643 43.1986 55.6684 43.0452C55.6706 43.0452 55.6739 43.0452 55.6761 43.0463C55.6684 43.0938 55.6552 43.139 55.6486 43.1865C57.6568 47.4921 62.6819 51.0772 69.3324 53.1308L69.3335 53.1297C68.6505 53.5666 68.0127 54.0742 67.4367 54.6513L53.5994 68.4886C55.6717 70.3081 56.987 72.9708 56.987 75.9468C56.987 80.7843 53.5255 84.8097 48.9462 85.6935C51.8185 86.5388 54.8541 87 58 87C75.6728 87 90 72.6728 90 55C90 37.3272 75.6728 23 58 23Z" fill="#556080"/>
<path d="M53.5994 68.4883L49.307 72.7807C49.9812 74.2494 50.3674 75.8781 50.3674 77.6006C50.3674 80.5236 49.275 83.1851 47.4885 85.2232C47.9696 85.3909 48.4562 85.5465 48.9473 85.691C53.5277 84.8083 56.9881 80.7829 56.9881 75.9443C56.9881 72.9705 55.6728 70.309 53.5994 68.4883Z" fill="#F7B563"/>
<path d="M69.3347 53.1293C69.3347 53.1293 69.3336 53.1293 69.3336 53.1304C62.6842 51.0769 57.658 47.4918 55.6497 43.1862C55.6563 43.1387 55.6696 43.0935 55.6773 43.046C55.6751 43.046 55.6718 43.046 55.6696 43.0449C55.6442 43.1983 55.6089 43.3495 55.5923 43.5051C55.4974 44.336 55.1311 45.1106 54.5407 45.702L32.7046 67.536C32.6252 67.6154 31.3154 68.72 30.1292 70.7172C33.9305 77.4416 40.0911 82.651 47.4897 85.2242C49.2751 83.1862 50.3664 80.5235 50.3664 77.6005C50.3664 75.878 49.9802 74.2493 49.306 72.7806L67.4367 54.6499C68.0138 54.0739 68.6516 53.5663 69.3347 53.1293Z" fill="#FBCE9D"/>
<path d="M76.0943 38.6295C73.7661 34.5886 68.6968 33.0206 64.3448 34.699L61.5211 35.7881C58.3134 37.025 56.197 39.8664 55.675 43.0455C55.6761 43.0455 55.6761 43.0455 55.6772 43.0455C55.6695 43.0929 55.6563 43.1381 55.6497 43.1856C57.6579 47.4912 62.683 51.0764 69.3335 53.1299C69.9713 52.7205 70.6499 52.3729 71.3606 52.0981C76.6284 50.0678 79.0284 43.723 76.0943 38.6295Z" fill="#EA7F5F"/>
<path d="M76.0943 38.6296C75.824 38.1595 75.5128 37.727 75.173 37.3242C73.3909 37.3264 71.7479 37.3783 70.8011 38.1794C70.3664 38.5457 70.1379 39.0202 70.1379 39.5521C70.1379 40.1623 70.7217 40.6555 71.44 40.6555C72.0977 40.6555 72.6417 40.2428 72.7299 39.7066C73.2508 39.5245 74.7636 39.5333 75.6077 39.5322L76.059 39.5333C76.219 39.5333 76.3691 39.5013 76.5104 39.4561C76.3846 39.178 76.251 38.901 76.0943 38.6296Z" fill="#EA6248"/>
<path d="M84.0547 54.2146L78.9764 46L76.1479 57.365L78.9764 63.3415C82.2771 63.3415 84.9528 60.6657 84.9528 57.365C84.9528 56.2086 84.6235 55.1294 84.0547 54.2146Z" fill="#FFF9D1"/>
<path d="M73.8981 54.2146C73.3294 55.1294 73 56.2086 73 57.365C73 60.6657 75.6758 63.3415 78.9764 63.3415V46L73.8981 54.2146Z" fill="white"/>
</svg>
