<svg width="119" height="114" viewBox="0 0 119 114" fill="none" xmlns="http://www.w3.org/2000/svg">
<path d="M0 10C0 4.47716 4.47715 0 10 0H109C114.523 0 119 4.47715 119 10V114H0V10Z" fill="#EAFBFB"/>
<path d="M60 87C77.6731 87 92 72.6731 92 55C92 37.3269 77.6731 23 60 23C42.3269 23 28 37.3269 28 55C28 72.6731 42.3269 87 60 87Z" fill="#2FDDD0"/>
<path d="M91.4567 60.9031L61.9295 31.376L52.9462 75.5536L46 78L59.3375 86.9935C59.5578 86.998 59.7785 87.0002 59.9999 87.0002C75.6565 87.0004 88.6869 75.7565 91.4567 60.9031Z" fill="#11BFAE"/>
<path d="M69.8546 63.7028L62.4999 69.7155L55.1451 63.7028C54.6668 60.1438 54.4272 56.561 54.4272 52.9782C54.4272 49.3944 54.6668 45.8116 55.1451 42.2526L62.4999 34.9043L69.8546 42.2526C70.8112 49.3706 70.8112 56.5858 69.8546 63.7028Z" fill="#FFD9B1"/>
<path d="M69.8548 63.7028L62.5 69.7155V34.9043L69.8548 42.2526C70.8113 49.3706 70.8113 56.5858 69.8548 63.7028Z" fill="#FFBB96"/>
<path d="M80.2737 72.9779C80.2737 74.8037 79.7927 76.5176 78.9519 78.0001H46.0482C45.2073 76.5176 44.7263 74.8037 44.7263 72.9779C44.7263 70.1606 45.8692 67.6114 47.7161 65.7663C49.2648 64.2205 51.3192 63.4338 53.3929 63.4338C54.9764 63.4338 56.5709 63.8927 57.9607 64.8217C59.3349 65.7406 60.9174 66.2005 62.5 66.2005C64.0826 66.2005 65.6652 65.7406 67.0394 64.8217C70.2486 62.6755 74.552 63.039 77.2839 65.7663C79.1309 67.6114 80.2737 70.1606 80.2737 72.9779Z" fill="#FFBB96"/>
<path d="M80.2737 72.9779C80.2737 74.8037 79.7927 76.5176 78.9518 78.0001H62.5V66.2005C64.0826 66.2005 65.6652 65.7406 67.0394 64.8217C70.2486 62.6755 74.552 63.039 77.2839 65.7663C79.1308 67.6114 80.2737 70.1606 80.2737 72.9779Z" fill="#F0A278"/>
<path d="M55.5386 68.7861H58.2925V71.54H55.5386V68.7861Z" fill="#F0A278"/>
<path d="M50.0615 71.9189H52.8154V74.6729H50.0615V71.9189Z" fill="#F0A278"/>
<path d="M61.123 71.9189H63.877V74.6729H61.123V71.9189Z" fill="#F0A278"/>
<path d="M62.5 71.918H63.877V74.6719H62.5V71.918Z" fill="#E88A57"/>
<path d="M66.6538 68.7861H69.4077V71.54H66.6538V68.7861Z" fill="#E88A57"/>
<path d="M72.1846 71.918H74.9385V74.6719H72.1846V71.918Z" fill="#E88A57"/>
<path d="M71.3125 39.8122C71.3198 41.3783 70.0255 42.736 68.375 42.7497C65.13 42.7497 62.5 40.1198 62.5 36.8747C62.5 38.4977 61.8427 39.9665 60.7788 41.0295C59.7158 42.0925 58.2471 42.7497 56.625 42.7497C55.0589 42.7571 53.7013 41.4628 53.6875 39.8122C53.6875 37.3787 54.6734 35.1756 56.2688 33.5811C57.5567 32.2932 59.2412 31.4018 61.123 31.1071C61.5719 31.0365 62.5 31.8039 62.5 31.8039C62.5 31.8039 63.4281 31.0365 63.877 31.1071C65.7588 31.4018 67.4433 32.2932 68.7312 33.5811C70.3266 35.1756 71.3125 37.3787 71.3125 39.8122Z" fill="#FFBB96"/>
<path d="M71.3125 39.8122C71.3198 41.3783 70.0255 42.736 68.375 42.7497C65.13 42.7497 62.5 40.1198 62.5 36.8747V31.8039C62.5 31.8039 63.4281 31.0365 63.877 31.1071C65.7588 31.4018 67.4433 32.2932 68.7312 33.5811C70.3266 35.1756 71.3125 37.3787 71.3125 39.8122Z" fill="#F0A278"/>
<path d="M63.877 31.1074V34.6829H61.123V31.1074C61.5719 31.0367 62.0318 31 62.5 31C62.9682 31 63.4281 31.0367 63.877 31.1074Z" fill="#F0A278"/>
<path d="M63.877 31.1074V34.6829H62.5V31C62.9682 31 63.4281 31.0367 63.877 31.1074Z" fill="#E88A57"/>
</svg>
