<svg width="118" height="114" viewBox="0 0 118 114" fill="none" xmlns="http://www.w3.org/2000/svg">
<path d="M0 10C0 4.47716 4.47715 0 10 0H108C113.523 0 118 4.47715 118 10V114H0V10Z" fill="#00C8C8" fill-opacity="0.1"/>
<g clip-path="url(#clip0)">
<path d="M39.4516 83.3369C31.8776 77.4847 27 68.312 27 58C27 40.3269 41.3269 26 59 26C76.6731 26 91 40.3269 91 58C91 67.3749 86.9686 75.808 80.5449 81.6608L39.4516 83.3369Z" fill="#64E1DC"/>
<path d="M55.1313 82.6972L80.5451 81.6606C86.9688 75.8078 91.0002 67.3747 91.0002 57.9998C91.0002 57.7476 90.9972 57.4961 90.9915 57.2452L82.7373 48.9911L82.6396 49.1276L70.0187 36.5068L50.4837 53.1216L43.1308 45.7687L37.3271 45.6732L47.3991 55.7452L46.7132 56.3286L42.3147 51.9301L34.6992 53.234L41.8933 60.4281L37.0131 64.5788L55.1313 82.6972Z" fill="#00C8C8"/>
<path d="M59 78.2215C63.923 78.2215 68.1961 75.4395 70.3333 71.3618L66.1696 70.4465C65.0744 70.2057 64.2941 69.2352 64.2941 68.1138V60.0537H53.7059V68.1138C53.7059 69.2352 52.9256 70.2057 51.8304 70.4465L47.6667 71.3618C49.8039 75.4395 54.077 78.2215 59 78.2215Z" fill="#FAA68E"/>
<path d="M70.3331 71.3618L66.1695 70.4465C65.0743 70.2057 64.294 69.2353 64.294 68.1138V60.0537H59.0149V78.2212C63.9315 78.2153 68.1981 75.4352 70.3331 71.3618Z" fill="#E09380"/>
<path d="M47.6348 57.0241C50.0526 57.0241 52.0126 55.0641 52.0126 52.6463C52.0126 50.2285 50.0526 48.2686 47.6348 48.2686C45.2171 48.2686 43.2571 50.2285 43.2571 52.6463C43.2571 55.0641 45.2171 57.0241 47.6348 57.0241Z" fill="#FFBEAA"/>
<path d="M70.3653 57.0241C72.7831 57.0241 74.743 55.0641 74.743 52.6463C74.743 50.2285 72.7831 48.2686 70.3653 48.2686C67.9475 48.2686 65.9875 50.2285 65.9875 52.6463C65.9875 55.0641 67.9475 57.0241 70.3653 57.0241Z" fill="#FAA68E"/>
<path d="M59.4995 66.6418H58.5003C51.8809 66.6418 46.5149 61.2758 46.5149 54.6564V47.8535C46.5149 41.2342 51.8809 35.8682 58.5003 35.8682H59.4995C66.1189 35.8682 71.4849 41.2342 71.4849 47.8535V54.6564C71.4849 61.2758 66.1189 66.6418 59.4995 66.6418Z" fill="#FFCDBE"/>
<path d="M59.4996 35.8682H59.0151V66.6418H59.4996C66.119 66.6418 71.485 61.2758 71.485 54.6564V47.8535C71.485 41.2342 66.119 35.8682 59.4996 35.8682Z" fill="#FFBEAA"/>
<path d="M54.6834 44.6112C54.6834 44.6112 62.8282 52.2338 73.0907 52.6469V44.6414C73.0907 37.4338 66.7822 31.5908 59.0002 31.5908C51.2182 31.5908 44.9097 37.4338 44.9097 44.6414V52.6469C44.9097 52.6469 49.6337 49.7409 54.6834 44.6112Z" fill="#555A66"/>
<path d="M73.0905 44.6412C73.0905 37.4382 66.7901 31.5983 59.0151 31.5908V47.8473C62.3759 49.9789 67.408 52.4179 73.0905 52.6468V44.6412Z" fill="#333940"/>
<path d="M59.0002 89.9997C66.3613 89.9997 73.1419 87.5142 78.5485 83.3366L77.9587 76.6656C77.7639 74.4636 76.1627 72.6426 74.0035 72.168L67.7223 70.7871C66.3559 74.2682 62.9659 76.7329 59.0002 76.7329C55.0344 76.7329 51.6443 74.2682 50.278 70.7871L43.9968 72.168C41.8377 72.6426 40.2364 74.4636 40.0418 76.6656L39.4519 83.3366C44.8584 87.5142 51.639 89.9997 59.0002 89.9997Z" fill="#7584F2"/>
<path d="M77.9584 76.6656C77.7636 74.4635 76.1624 72.6426 74.0033 72.168L67.722 70.7871C66.3574 74.2637 62.9741 76.7264 59.0149 76.7326V89.9997C66.3703 89.9964 73.1453 87.5115 78.5483 83.3369L77.9584 76.6656Z" fill="#606AEA"/>
<path d="M58.9998 78.3613C56.8549 78.3613 54.7928 77.7167 53.0363 76.4969C51.3222 75.3067 50.0144 73.654 49.2544 71.7178C48.876 70.7539 49.3508 69.6657 50.3147 69.2874C51.2788 68.909 52.3668 69.3838 52.745 70.3477C53.7615 72.9377 56.2167 74.6112 58.9997 74.6112C61.7827 74.6112 64.2377 72.9377 65.2543 70.3477C65.6327 69.3838 66.7207 68.9089 67.6847 69.2874C68.6487 69.6657 69.1233 70.7539 68.7449 71.7178C67.9849 73.654 66.6772 75.3067 64.963 76.4969C63.2068 77.7167 61.1447 78.3613 58.9998 78.3613Z" fill="white"/>
<path d="M67.6849 69.2883C66.7209 68.91 65.6329 69.3847 65.2545 70.3486C64.2398 72.934 61.7916 74.6058 59.0149 74.6118V78.3618C61.1544 78.3588 63.211 77.7146 64.9634 76.4978C66.6775 75.3076 67.9853 73.655 68.7453 71.7187C69.1235 70.7548 68.6489 69.6667 67.6849 69.2883Z" fill="#E9EDF5"/>
<path d="M47.3638 67.0052L39.5793 65.9071C37.1909 65.5702 35.528 63.361 35.8649 60.9726C36.2018 58.5842 38.411 56.9213 40.7994 57.2582L48.5839 58.3563L47.3638 67.0052Z" fill="#FFCDBE"/>
<path d="M72.3452 87.0935C75.3592 85.7086 78.1209 83.8692 80.5428 81.663L82.8784 70.7202C83.2519 68.9706 83.0343 67.1334 82.1955 65.5532C80.9663 63.2377 78.6624 61.5624 75.9013 61.2253L44.0258 56.9502L42.9155 67.2702L73.0902 72.6937L72.3452 87.0935Z" fill="#7584F2"/>
<path d="M82.1956 65.5526C80.9664 63.2371 78.6625 61.5618 75.9014 61.2247L59.0149 58.96V70.1632L73.0903 72.6931L72.3451 87.0927C75.3591 85.7078 78.1209 83.8685 80.5428 81.6622L82.8784 70.7195C83.252 68.97 83.0345 67.1327 82.1956 65.5526Z" fill="#606AEA"/>
<path d="M81.375 59.125H75.6614C74.6259 59.125 73.7864 58.2855 73.7864 57.25C73.7864 56.2145 74.6259 55.375 75.6614 55.375H81.375C82.4105 55.375 83.25 56.2145 83.25 57.25C83.25 58.2855 82.4105 59.125 81.375 59.125Z" fill="#E9EDF5"/>
<path d="M77.6137 52.7419C76.7057 52.7419 75.9079 52.0811 75.7634 51.156C75.6037 50.1329 76.3034 49.1739 77.3266 49.0141L81.0854 48.427C82.1089 48.2673 83.0676 48.967 83.2274 49.9901C83.3873 51.0133 82.6874 51.9723 81.6643 52.132L77.9054 52.7191C77.8074 52.7345 77.7099 52.7419 77.6137 52.7419Z" fill="#E9EDF5"/>
<path d="M40.6 54.5603C40.4889 54.5603 40.3762 54.5504 40.263 54.5298L35.6205 53.687C34.6017 53.5022 33.9257 52.5262 34.1105 51.5073C34.2955 50.4884 35.2714 49.8123 36.2903 49.9973L40.9328 50.84C41.9517 51.0249 42.6277 52.0009 42.4428 53.0198C42.2783 53.9255 41.489 54.5603 40.6 54.5603Z" fill="white"/>
<path d="M41.9185 49.0755C41.4905 49.0755 41.0604 48.9297 40.7081 48.6317L37.6765 46.0661C36.886 45.3971 36.7875 44.2141 37.4565 43.4236C38.1255 42.633 39.3086 42.5346 40.099 43.2036L43.1306 45.7692C43.9211 46.4382 44.0196 47.6212 43.3506 48.4117C42.9798 48.8499 42.4508 49.0755 41.9185 49.0755Z" fill="white"/>
</g>
<defs>
<clipPath id="clip0">
<rect width="64" height="64" fill="white" transform="translate(27 26)"/>
</clipPath>
</defs>
</svg>
