<svg width="119" height="114" viewBox="0 0 119 114" fill="none" xmlns="http://www.w3.org/2000/svg">
<path d="M0 10C0 4.47716 4.47715 0 10 0H109C114.523 0 119 4.47715 119 10V114H0V10Z" fill="#F44545" fill-opacity="0.1"/>
<g clip-path="url(#clip0)">
<path d="M34.6567 76.9565H83.3433C87.2832 71.8029 89.6255 65.3627 89.6255 58.3745C89.6255 41.4605 75.914 27.749 59 27.749C42.086 27.749 28.3745 41.4605 28.3745 58.3745C28.3745 65.3627 30.7168 71.8029 34.6567 76.9565Z" fill="#E80054"/>
<path d="M81.81 70.0889C81.3265 68.2588 79.9157 66.8187 78.0978 66.2916C75.3799 65.5036 72.6357 64.3721 70.7262 63.5186C70.254 69.582 65.1846 74.3551 59.0001 74.3551C56.8222 74.3551 54.7838 73.7611 53.0345 72.7294C52.7255 73.0288 52.5036 73.228 52.4088 73.3118H50.0427C49.6521 73.2405 44.6612 72.3745 42.5226 74.1511C41.8876 74.6786 41.5657 75.3878 41.5657 76.2589V83.5486C42.1037 83.9217 42.6531 84.2796 43.2152 84.6186L50.1287 87.6927L50.128 87.6935C52.9363 88.5424 55.9147 88.9994 59.0001 88.9994C64.8162 88.9994 70.2518 87.3757 74.8828 84.5601V76.931C74.8828 76.4535 75.1558 76.0373 75.5952 75.8446C75.7504 75.7766 75.9119 75.7434 76.0713 75.7434C76.3553 75.7434 76.6321 75.849 76.8523 76.052C78.5198 77.5893 79.012 79.7505 79.0987 81.4771C80.6604 80.1172 82.0841 78.6029 83.3433 76.9559C82.817 74.1288 82.2594 71.7896 81.81 70.0889Z" fill="#49B1F7"/>
<path d="M50.0257 73.5004H52.4792C52.4792 73.5004 52.7569 73.2634 53.2034 72.8296C49.8945 70.9516 47.5853 67.5163 47.2741 63.5195C45.3646 64.3732 42.6203 65.5046 39.9024 66.2926C38.0844 66.8197 36.6737 68.2598 36.1902 70.0898C35.7409 71.7906 35.1832 74.1297 34.657 76.9569C36.6459 79.5585 39.0445 81.8287 41.7533 83.6783C41.7533 81.8513 41.7533 78.9334 41.7533 76.26C41.7532 71.9572 50.0257 73.5004 50.0257 73.5004Z" fill="#1E9EF4"/>
<path d="M66.0848 60.6637C65.1595 59.7386 64.7782 58.3791 64.6279 57.5947C64.1898 58.0412 63.7462 58.4322 63.3163 58.7661C62.0849 59.7224 60.5652 60.2419 59 60.2419C58.9517 60.2419 58.9035 60.2398 58.8553 60.2388C58.856 60.7417 58.8389 61.3687 58.7794 62.062C58.6438 63.6426 58.2544 65.8937 57.1694 67.6422C56.6527 68.475 56.1002 69.2421 55.5603 69.927C56.6201 70.3661 57.7813 70.6099 58.9999 70.6099C63.767 70.6099 67.6658 66.9015 67.9743 62.2123C67.6652 62.0345 67.0247 61.6036 66.0848 60.6637Z" fill="#FFAA7B"/>
<path d="M58.9999 60.2419C57.4348 60.2419 55.9152 59.7225 54.6836 58.7661C54.2536 58.4322 53.81 58.0412 53.3719 57.5947C53.2216 58.3791 52.8401 59.7385 51.9149 60.6637C50.975 61.6036 50.3345 62.0345 50.0254 62.2122C50.2596 65.771 52.5626 68.763 55.7429 69.9996C56.2744 69.3218 56.8178 68.5642 57.3287 67.741C58.8242 65.3308 59.0452 62.0161 59.0429 60.2409C59.0285 60.2411 59.0143 60.2419 58.9999 60.2419Z" fill="#FC9460"/>
<path d="M68.1876 62.3228C68.1876 62.3228 68.1076 62.2907 67.9541 62.2012C67.537 66.7825 63.6901 70.3727 59 70.3727C57.8352 70.3727 56.7225 70.1509 55.7014 69.7477C54.5805 71.1945 53.497 72.2915 52.8804 72.8784C54.6631 73.9669 56.7583 74.5943 59 74.5943C65.263 74.5943 70.3819 69.6992 70.7414 63.5264C69.1916 62.834 68.1876 62.3228 68.1876 62.3228Z" fill="#73C3F9"/>
<path d="M50.0459 62.2012C49.8923 62.2908 49.8124 62.3229 49.8124 62.3229C49.8124 62.3229 48.8084 62.8342 47.2588 63.5264C47.4935 67.5587 49.7595 71.0452 53.0484 72.9787C53.6827 72.3735 54.7669 71.2697 55.8867 69.8164C52.7015 68.6399 50.3657 65.7128 50.0459 62.2012Z" fill="#49B1F7"/>
<path d="M72.0435 33.6835C71.4486 32.0252 69.6722 28.1487 65.7978 27.1147C65.5914 27.0596 65.5369 26.7926 65.7048 26.6606L66.2854 26.2043C66.5487 25.9974 66.4475 25.5773 66.1188 25.5139C64.5752 25.2163 61.0968 24.6953 57.759 25.2332C57.1136 26.2809 56.7236 27.8238 58.7501 29.0411C62.1491 31.0827 57.8502 34.1465 57.8502 34.1465L57.7907 34.2551C58.6742 34.506 59.6291 34.4867 60.5015 34.1967C61.9499 33.715 64.0324 33.3014 65.728 34.0644C66.5721 34.4442 67.9462 35.6618 67.6648 39.5489C67.5778 40.7502 68.1344 41.1253 68.4968 42.0708C68.7161 42.6432 68.8169 43.1719 68.8431 43.7024H69.9943C70.0329 42.1341 70.2945 37.9829 71.9336 35.0259C72.1615 34.6147 72.2022 34.1261 72.0435 33.6835Z" fill="#6E5D76"/>
<path d="M50.8173 29.7077C50.6413 30.0696 50.3096 30.3301 49.9201 30.4309C49.0619 30.6531 47.5186 31.3225 46.5127 33.3283C46.3159 33.7206 46.2823 34.1756 46.4234 34.5912C46.9123 36.0321 48.1034 39.9008 48.2276 43.7029H49.2581C49.2843 43.1645 49.3877 42.6284 49.6148 42.045C49.9529 41.1775 50.5238 40.7349 50.4378 39.5628C50.1516 35.6656 51.5278 34.4454 52.3736 34.0649C53.9616 33.3502 55.9414 33.6456 57.6 34.1972C57.7347 34.242 57.8717 34.2796 58.0099 34.3115L58.1001 34.147C58.1001 34.147 62.399 31.0833 59 29.0416C56.946 27.8078 57.3745 26.2395 58.0351 25.1914C55.0944 25.6139 52.2178 26.8279 50.8173 29.7077Z" fill="#56415E"/>
<path d="M70.8389 43.0685C70.3515 42.6219 69.2621 42.8483 68.8424 43.1218C68.9344 43.6943 68.9395 44.28 68.8601 44.8585L68.3649 48.4656C68.3649 48.7564 68.3557 49.0418 68.3389 49.322C69.5466 49.6863 70.2652 48.6021 70.3662 47.858C70.4097 47.5378 70.4809 47.222 70.5795 46.914C70.9009 45.9106 72.0597 44.1874 70.8389 43.0685Z" fill="#FFAA7B"/>
<path d="M47.2622 43.0685C47.7495 42.6219 48.8389 42.8483 49.2587 43.1218C49.1668 43.6943 49.1615 44.28 49.2409 44.8585L49.7362 48.4656C49.7362 48.7564 49.7453 49.0418 49.7622 49.322C48.5544 49.6863 47.8358 48.6021 47.7347 47.858C47.6912 47.5378 47.62 47.222 47.5214 46.914C47.2002 45.9106 46.0413 44.1874 47.2622 43.0685Z" fill="#FC9460"/>
<path d="M68.6633 42.0075C68.5518 41.7167 68.4113 41.4222 68.2343 41.1444C67.9344 40.6739 67.8024 40.1174 67.8426 39.5624C67.9583 37.9663 67.8963 34.8447 65.801 33.902C64.021 33.101 61.8375 33.5647 60.445 34.0278C59.5896 34.3124 58.6672 34.3242 57.8044 34.0705C56.312 35.3335 56.2769 37.999 56.3824 39.4345C56.4237 39.9958 56.2855 40.557 55.9822 41.0329C55.8074 41.3072 55.6675 41.5974 55.5557 41.8848C55.1929 42.8168 55.087 43.8277 55.223 44.8174L55.7279 48.4945C55.7279 53.7807 58.5498 57.3738 60.9501 59.2378C61.2568 59.4759 61.582 59.6857 61.9203 59.8692C62.4301 59.6417 62.9141 59.3537 63.3597 59.0075C65.715 57.1785 68.4839 53.6529 68.4839 48.4658L68.9791 44.8587C69.1111 43.897 69.011 42.9149 68.6633 42.0075Z" fill="#FFC7AB"/>
<path d="M60.9732 59.0067C58.6179 57.1777 55.849 53.6521 55.849 48.465L55.3536 44.857C55.2203 43.8859 55.3241 42.894 55.68 41.9793C55.7898 41.6973 55.927 41.4126 56.0985 41.1435C56.3961 40.6765 56.5317 40.1257 56.4913 39.575C56.3829 38.1007 56.4246 35.3025 58.1004 34.146C57.951 34.1132 57.8027 34.0754 57.6567 34.0268C56.2641 33.5638 54.0806 33.1 52.3006 33.9009C50.1995 34.8463 50.1431 37.9831 50.26 39.575C50.3005 40.1256 50.1648 40.6765 49.8672 41.1435C49.6957 41.4126 49.5585 41.6973 49.4487 41.9793C49.0927 42.8939 48.989 43.8857 49.1223 44.857L49.6177 48.465C49.6177 53.6521 52.3866 57.1777 54.7419 59.0067C55.9713 59.9614 57.4884 60.48 59.0509 60.48C60.1388 60.48 61.2044 60.228 62.1666 59.753C61.7468 59.5457 61.3466 59.2967 60.9732 59.0067Z" fill="#FFAA7B"/>
<path d="M59.238 53.7665C60.183 53.7665 61.1042 53.8686 61.9912 54.0624C62.9854 54.2795 63.7863 53.2211 63.2642 52.3476C62.4458 50.9784 60.9494 50.0615 59.238 50.0615C57.5268 50.0615 56.0303 50.9784 55.2119 52.3476C54.6898 53.2211 55.4907 54.2795 56.4849 54.0624C57.3719 53.8686 58.293 53.7665 59.238 53.7665Z" fill="#FF4155"/>
<path d="M64.5476 45.3141C61.7835 45.3141 60.9919 43.6957 60.803 43.1421C60.6615 42.7272 60.8829 42.2762 61.2979 42.1344C61.7127 41.9932 62.1637 42.2143 62.3054 42.6292C62.4201 42.9656 62.9957 44.0328 65.5852 43.6427C66.0194 43.5774 66.4231 43.8759 66.4883 44.3093C66.5537 44.7428 66.2551 45.1471 65.8217 45.2124C65.3564 45.2826 64.9325 45.3141 64.5476 45.3141Z" fill="#FC9460"/>
<path d="M53.9287 45.3141C56.6929 45.3141 57.4845 43.6957 57.6734 43.1421C57.8149 42.7272 57.5935 42.2762 57.1785 42.1344C56.7636 41.9932 56.3126 42.2143 56.171 42.6292C56.0562 42.9656 55.4806 44.0328 52.8911 43.6427C52.457 43.5774 52.0532 43.8759 51.988 44.3093C51.9226 44.7428 52.2211 45.1471 52.6546 45.2124C53.12 45.2826 53.5437 45.3141 53.9287 45.3141Z" fill="#FC9460"/>
<path d="M75.9265 63.1707C75.7538 63.0137 75.7018 62.7591 75.7982 62.5467C76.6873 60.5871 74.6455 58.5206 72.6618 59.4471C72.4203 59.56 72.1306 59.489 71.9808 59.2685C71.4628 58.5057 70.5201 58.0884 69.5607 58.2861C69.0775 58.3857 68.6605 58.6275 68.343 58.9585C68.1567 59.1526 67.8595 59.186 67.6317 59.0429C66.3541 58.2396 65.2748 57.083 64.6188 56.2905C64.4087 56.0367 63.9976 56.2217 64.0491 56.5471C64.3102 58.1962 64.9658 59.4891 65.6816 60.4604C65.835 60.6685 65.7937 60.9549 65.597 61.1226C64.6011 61.9715 64.3797 63.6217 65.5072 64.6579C65.6808 64.8174 65.7481 65.067 65.6498 65.2812C64.7491 67.2447 66.7962 69.318 68.7817 68.3906C69.0233 68.2777 69.313 68.3486 69.4628 68.5692C69.9808 69.332 70.9236 69.7494 71.883 69.5516C72.8423 69.3539 73.5431 68.5976 73.7172 67.6922C73.7653 67.442 74.0182 67.2511 74.2728 67.2589C76.4411 67.3236 77.5303 64.6292 75.9265 63.1707Z" fill="#D3DCFB"/>
<path d="M61.3462 73.068C60.8762 72.7089 60.2041 72.7988 59.845 73.2688L60.9337 71.8438C61.2929 71.3738 61.203 70.7015 60.733 70.3425C60.263 69.9834 59.5907 70.0733 59.2316 70.5433L60.0415 69.4834C60.4006 69.0134 60.3107 68.3413 59.8407 67.9822C59.3707 67.623 58.6985 67.7129 58.3395 68.1829L57.5296 69.2429C57.8887 68.7729 57.7989 68.1007 57.3289 67.7415C56.8589 67.3824 56.1867 67.4723 55.8275 67.9424C55.1212 68.8668 53.8916 70.476 52.9422 71.7185C52.7154 71.956 52.5287 72.2212 52.2715 72.4264C52.0287 72.62 51.6697 72.4438 51.6769 72.1333C51.6931 71.4279 51.6872 70.3634 51.5597 69.4099C51.466 68.7088 51.0595 68.3732 50.632 68.2175C50.1311 68.035 49.6097 68.4433 49.6782 68.9719C49.8754 70.4925 49.4045 71.7604 48.9782 72.5525C48.6479 73.1665 48.5214 73.8697 48.5999 74.5625C48.7182 75.6075 48.6735 76.7014 48.6157 77.4307C48.6027 77.5952 48.5761 77.7574 48.5374 77.9163C48.7419 78.6378 49.2912 80.0452 50.61 80.9164C51.6467 81.6014 52.9389 81.8037 54.4551 81.5237C54.7339 81.3279 54.9266 81.23 54.924 81.2318C56.7674 80.2244 58.9052 78.0268 60.1756 76.3642C60.3601 76.1227 61.3395 74.8409 61.547 74.5693C61.9061 74.0994 61.8162 73.4272 61.3462 73.068Z" fill="#FFC7AB"/>
<path d="M77.0514 33.6348C78.0089 36.9725 77.9325 41.5257 75.0659 46.1051C70.5659 53.2937 75.9825 56.8333 82.0659 60.4806C85.332 62.4387 86.6278 66.8422 87.1282 70.5011C88.7341 66.7824 89.6255 62.683 89.6255 58.3747C89.6255 48.211 84.6732 39.2054 77.0514 33.6348Z" fill="#FF4155"/>
<path d="M36.3668 62.2007C43.7418 59.2274 47.8669 55.3649 43.3669 48.1762C39.3145 41.7025 40.8376 35.2812 42.976 32.2725C34.2162 37.6616 28.3745 47.3353 28.3745 58.3745C28.3745 63.1616 29.474 67.6912 31.4329 71.7265C31.4329 71.7265 31.6488 64.1028 36.3668 62.2007Z" fill="#FF4155"/>
<path d="M73.1415 64.3168C73.9996 64.3168 74.6951 63.6068 74.6951 62.7311C74.6951 61.8554 73.9996 61.1455 73.1415 61.1455C72.2835 61.1455 71.5879 61.8554 71.5879 62.7311C71.5879 63.6068 72.2835 64.3168 73.1415 64.3168Z" fill="#E9EFFF"/>
<path d="M70.5311 65.1865C71.7317 65.1865 72.7049 64.1932 72.7049 62.9678C72.7049 61.7424 71.7317 60.749 70.5311 60.749C69.3305 60.749 68.3572 61.7424 68.3572 62.9678C68.3572 64.1932 69.3305 65.1865 70.5311 65.1865Z" fill="#E9EFFF"/>
<path d="M79.2779 81.3215C79.1107 78.5576 78.0428 76.8949 76.9794 75.9145C76.1082 75.1112 74.6953 75.7464 74.6953 76.9314V84.6725C76.3271 83.6962 77.8616 82.5744 79.2779 81.3215Z" fill="#1E9EF4"/>
<path d="M48.6155 77.4307C48.5649 78.0695 48.3169 78.6783 47.8978 79.1632L43.1909 84.6083C45.3445 85.9089 47.6715 86.9505 50.1285 87.693L53.252 82.6665C53.986 81.7059 54.9294 81.2279 54.9238 81.2319C49.4488 82.589 48.6155 77.4307 48.6155 77.4307Z" fill="#FFAA7B"/>
</g>
<defs>
<clipPath id="clip0">
<rect width="64" height="64" fill="white" transform="translate(27 25)"/>
</clipPath>
</defs>
</svg>
