<svg width="119" height="114" viewBox="0 0 119 114" fill="none" xmlns="http://www.w3.org/2000/svg">
<path d="M0 10C0 4.47716 4.47715 0 10 0H109C114.523 0 119 4.47715 119 10V114H0V10Z" fill="#EAFBFB"/>
<path d="M91 63C91 71.9195 87.3507 79.9866 81.4637 85.7899C81.165 86.0845 80.6886 86.0948 80.3765 85.8144C74.71 80.7242 67.2166 77.6274 59 77.6274C50.8164 77.6274 43.3503 80.6994 37.6919 85.7531C37.3405 86.067 36.8055 86.0571 36.471 85.7254C30.6222 79.9269 27 71.8865 27 63C27 53.2534 31.3575 44.5246 38.2305 38.6553C38.8119 38.1588 39.6585 38.1271 40.2782 38.575C45.5422 42.3788 52.0094 44.6204 59 44.6204C65.7466 44.6204 72.0056 42.5325 77.1661 38.9676C78.1506 38.2876 79.4675 38.3716 80.3581 39.1705C86.8904 45.0293 91 53.5346 91 63Z" fill="#199A8E"/>
<path d="M85.9995 59.3459C85.9995 74.2572 73.9115 86.3452 59.0002 86.3452C44.089 86.3452 32.001 74.2573 32.001 59.3459C32.001 44.4346 44.089 32.3467 59.0002 32.3467C73.9115 32.3467 85.9995 44.4347 85.9995 59.3459Z" fill="#20B7A1"/>
<path d="M81.9592 80.0195C81.9592 81.9751 81.8082 83.8859 81.5205 85.7339C75.7382 91.4621 67.7823 95 59.0001 95C50.1908 95 42.213 91.4404 36.4265 85.681C36.144 83.8494 35.9958 81.9565 35.9958 80.0195C35.9958 74.2008 37.332 68.779 39.6352 64.2239C41.7888 59.9646 42.7132 55.1719 42.067 50.443C41.5187 46.4319 40.2203 42.4394 38.183 38.696C43.779 33.8985 51.051 31 59.0001 31C67.2375 31 74.748 34.1125 80.4196 39.2256C77.5235 44.7684 76.2292 50.8271 76.5718 56.6677C76.7451 59.6209 77.5386 62.4975 78.7835 65.1808C80.8015 69.5306 81.9592 74.603 81.9592 80.0195Z" fill="#FFBEAA"/>
<path d="M38.1398 87.2672C37.5496 86.7593 36.9781 86.2305 36.4265 85.6813C36.144 83.8497 35.9958 81.9568 35.9958 80.0198C35.9958 74.2011 37.332 68.7793 39.6352 64.2242C41.7889 59.965 42.7132 55.1722 42.067 50.4433C41.5187 46.4322 40.2203 42.4397 38.183 38.6963C39.0597 37.9446 39.9777 37.2396 40.933 36.585C43.0635 40.929 44.4311 45.5347 45.0247 50.161C45.7595 55.8865 44.7085 61.6895 42.2601 66.8463C39.6416 72.3616 38.1226 78.9261 38.1226 85.9713C38.1227 86.4052 38.1285 86.8372 38.1398 87.2672Z" fill="#FAA68E"/>
<path d="M61.4255 78.6592L59.8104 94.9894C59.5412 94.9962 59.2712 94.9995 59.0003 94.9995C58.7143 94.9995 58.4292 94.9958 58.1449 94.9883L56.53 78.6592H61.4255Z" fill="#E09380"/>
<path d="M81.5935 74.7979C74.2893 76.8596 67.96 81.2452 63.4543 87.1059C61.2026 90.0349 56.7521 90.0349 54.5003 87.1059C49.9947 81.2452 43.6655 76.8596 36.3613 74.7979C36.4972 72.2795 37.1887 70.0454 38.0511 67.917C44.1541 71.1099 51.3167 72.9484 58.9775 72.9484C66.6382 72.9484 73.8008 71.1099 79.9038 67.917C80.859 70.0241 81.4122 72.2582 81.5935 74.7979Z" fill="#C8E2FD"/>
<path d="M81.5936 74.7977C74.2895 76.8595 67.9601 81.2451 63.4545 87.1057C61.2027 90.0347 56.7522 90.0347 54.5005 87.1057C52.0831 83.9615 50.1101 79.3371 46.774 77.173C45.645 76.4406 44.0001 75.173 44.0929 74.1734C44.3279 71.6395 46.3531 71.2882 48.837 71.8419C52.0772 72.5641 55.4754 72.9484 58.9775 72.9484C66.6382 72.9484 73.8009 71.1099 79.9039 67.917C80.8591 70.024 81.4124 72.2581 81.5936 74.7977Z" fill="#E9F3FE"/>
</svg>
