<svg width="118" height="114" viewBox="0 0 118 114" fill="none" xmlns="http://www.w3.org/2000/svg">
<path d="M0 10C0 4.47716 4.47715 0 10 0H108C113.523 0 118 4.47715 118 10V114H0V10Z" fill="#556080" fill-opacity="0.1"/>
<path d="M91 55C91 72.6733 76.6733 87 59 87C41.3267 87 27 72.6733 27 55C27 37.3267 41.3267 23 59 23C76.6733 23 91 37.3267 91 55Z" fill="#613394"/>
<path d="M65.2881 86.3813C79.8687 83.4756 90.8755 70.6636 90.9966 55.2573L82.0381 46.2988L33.875 54.9678L65.2881 86.3813Z" fill="#4B1B7A"/>
<path d="M82.0381 46.2983L84.125 54.9673C84.125 54.9673 67.2681 57.3755 62.6123 69.5767H55.3877C50.7319 57.3755 33.875 54.9673 33.875 54.9673L35.9619 46.2979L82.0381 46.2983Z" fill="#FF0068"/>
<path d="M82.0381 46.2988H59V69.5771H62.6123C67.2681 57.376 84.125 54.9678 84.125 54.9678L82.0381 46.2988Z" fill="#E50E70"/>
<path d="M71.0547 66.2146L65.9764 58L63.1479 69.365L65.9764 75.3415C69.2771 75.3415 71.9528 72.6657 71.9528 69.365C71.9528 68.2086 71.6235 67.1294 71.0547 66.2146Z" fill="#FFF9D1"/>
<path d="M60.8981 66.2146C60.3294 67.1294 60 68.2086 60 69.365C60 72.6657 62.6758 75.3415 65.9764 75.3415V58L60.8981 66.2146Z" fill="white"/>
</svg>
