<svg width="118" height="114" viewBox="0 0 118 114" fill="none" xmlns="http://www.w3.org/2000/svg">
<path d="M0 10C0 4.47716 4.47715 0 10 0H108C113.523 0 118 4.47715 118 10V114H0V10Z" fill="#1C4D93" fill-opacity="0.1"/>
<g clip-path="url(#clip0)">
<path d="M90 57C90 66.9813 85.43 75.8962 78.2675 81.7637C77.6658 82.2569 75.361 81.8781 74.724 82.3269C73.5719 83.1387 74.0486 84.7264 72.7912 85.3825C71.0675 86.2837 69.2513 87.0312 67.36 87.6087C64.4 88.5137 61.2562 86.0224 58 86.0224C54.805 86.0224 51.72 88.5312 48.8088 87.66C46.8575 87.0762 44.9837 86.31 43.2087 85.3825C42.3395 84.929 41.6311 83.5246 40.8111 82.9956C39.7892 82.3364 38.6701 82.5321 37.7325 81.7637C30.57 75.8962 26 66.9813 26 57C26 39.3275 40.3275 25 58 25C75.6725 25 90 39.3275 90 57Z" fill="#1C4D93"/>
<path d="M89.9869 56.0768L64.7987 30.8887L48.2334 44.5127L61.0412 57.3204L61.0309 57.3938L59.0739 56.9518L43.5114 41.3893L43.0402 42.9863L38.1826 46.0484L44.6891 52.5549L40.295 53.362L38.5739 56.2898L44.3676 62.0835L40.8825 83.0447C41.6725 83.6062 42.3649 84.9428 43.2089 85.3832C44.9839 86.3107 46.8576 87.0769 48.8089 87.6607C48.8089 87.6607 54.8051 86.023 58.0001 86.023C61.2564 86.023 67.3601 87.6094 67.3601 87.6094C69.2514 87.0319 71.0676 86.2844 72.7914 85.3832C74.0487 84.727 73.5719 83.1394 74.7241 82.3275C75.3611 81.8787 77.666 82.2574 78.2676 81.7643C85.43 75.8969 90 66.9819 90 57.0007C90 56.6917 89.9956 56.3837 89.9869 56.0768Z" fill="#1C3666"/>
<path d="M78.2677 81.7641C76.5777 83.1491 74.7439 84.3641 72.7914 85.3828L69.8052 68.1528L67.3602 87.6091C64.4002 88.5141 61.2564 89.0003 58.0002 89.0003C54.8052 89.0003 51.7202 88.5316 48.8089 87.6603L46.1952 68.1528L43.2089 85.3828C41.2564 84.3641 39.4227 83.1491 37.7327 81.7641L39.6527 62.4953C40.2314 59.5953 42.6202 57.4016 45.5589 57.0703L49.3264 56.3941C51.1439 56.0678 52.4664 54.4878 52.4664 52.6416V47.2578H63.7014V52.6553C63.7014 54.4953 65.0152 56.0728 66.8252 56.4053L70.4414 57.0703C73.3802 57.4016 75.7689 59.5953 76.3477 62.4953L78.2677 81.7641Z" fill="#FFD3AB"/>
<path d="M76.3475 62.4953C75.7687 59.5953 73.38 57.4016 70.4412 57.0703L66.825 56.4053C65.015 56.0728 63.7012 54.4953 63.7012 52.6553V47.2578H58V89.0003C61.2562 89.0003 64.4 88.5141 67.36 87.6091L69.805 68.1528L72.7912 85.3828C74.7437 84.3641 76.5775 83.1491 78.2675 81.7641L76.3475 62.4953Z" fill="#FFB985"/>
<path d="M67.1419 38.6017C66.7593 33.288 62.0597 31.3242 58.0832 31.3242C54.1065 31.3242 49.407 33.288 49.0244 38.6017C47.996 38.7836 47.2657 40.0172 47.3805 41.0146L47.5568 43.2843C47.6774 44.3317 48.684 45.0963 49.7934 44.9826L50.0502 44.9636C50.8268 46.8687 51.6879 48.192 52.6617 49.1205C54.5392 50.9118 56.593 51.2377 58.0832 51.4532C59.5734 51.2377 61.6272 50.9118 63.5047 49.1205C64.4783 48.1921 65.3672 46.8687 66.1438 44.9636C66.1439 44.9637 68.1703 38.7837 67.1419 38.6017Z" fill="#FFD3AB"/>
<path d="M65.2832 46.7679C65.5832 46.2333 65.8706 45.6348 66.1441 44.9641L66.3731 44.9831C67.4825 45.0968 68.4891 44.3322 68.6097 43.2848L68.786 41.0151C68.901 40.0177 68.1705 38.7841 67.1421 38.6022C67.0958 37.9602 66.9866 37.3671 66.8232 36.8203H65.2832V46.7679Z" fill="#FFB985"/>
<path d="M57.9998 27.3643C57.9998 27.3643 55.2115 28.907 54.2472 30.1123L54.0543 28.7383C54.0543 28.7383 49.7725 31.1729 49.194 35.1263C49.0123 36.3675 48.8421 39.3725 49.037 40.4073C49.0443 40.5423 49.7277 51.2555 57.9998 52.7683C65.1916 51.453 57.9998 27.3643 57.9998 27.3643Z" fill="#91381D"/>
<path d="M57.4468 67.7568L52.5901 76.0295H56.2328L54.0096 84.5448L63.4103 73.5656L60.0866 73.5017L64.0635 67.7568H57.4468Z" fill="#F25578"/>
<path d="M38.1826 46.0477L46.1671 50.3884L43.5112 41.3887L38.1826 46.0477Z" fill="#FFE05C"/>
<path d="M38.5736 56.289L44.9173 52.5122L37.6345 51.3008L38.5736 56.289Z" fill="#FFE05C"/>
<path d="M77.8173 46.0477L69.8328 50.3884L72.4886 41.3887L77.8173 46.0477Z" fill="#E5980E"/>
<path d="M77.4261 56.289L71.0825 52.5122L78.3653 51.3008L77.4261 56.289Z" fill="#E5980E"/>
<path d="M58 52.7681C65.1917 51.453 66.7674 43.6313 67.0339 41.043C67.321 39.8685 67.2345 36.6298 67.0145 35.1263C66.436 31.173 62.1541 28.7383 62.1541 28.7383L61.9614 30.1123C60.9971 28.907 58 27.3643 58 27.3643V52.7681C58 52.7681 58.0129 52.7705 58 52.7681Z" fill="#5E2318"/>
<path d="M63.4101 73.5646L60.0864 73.5007L64.0633 67.7559H58V79.8831L63.4101 73.5646Z" fill="#DD2A62"/>
</g>
<defs>
<clipPath id="clip0">
<rect width="64" height="64" fill="white" transform="translate(26 25)"/>
</clipPath>
</defs>
</svg>
